<svg height="480pt" viewBox="0 0 480 480.03092" width="480pt" xmlns="http://www.w3.org/2000/svg" xmlns:xlink="http://www.w3.org/1999/xlink"><linearGradient id="a" gradientUnits="userSpaceOnUse" x1="24.289172" x2="488.289172" y1="31.711461" y2="479.711461"><stop offset="0" stop-color="#fff200"/><stop offset="1" stop-color="#cd118c"/></linearGradient><path d="m480.015625 240c.175781-77.886719-37.636719-150.964844-101.320313-195.808594l.355469-.222656-10.585937-6.730469c-78.433594-49.652343-178.460938-49.652343-256.894532 0l-10.585937 6.761719.351563.222656c-63.542969 44.960938-101.320313 117.964844-101.320313 195.808594s37.777344 150.847656 101.320313 195.808594l-.351563.222656 10.585937 6.730469c78.433594 49.652343 178.460938 49.652343 256.894532 0l10.585937-6.730469-.355469-.222656c63.691407-44.851563 101.507813-117.941406 101.320313-195.839844zm-16.246094-8h-63.886719c-1.472656-67.089844-21.34375-127.3125-52.335937-169.601562 5.523437-2.742188 10.960937-5.730469 16.308594-8.96875 60.285156 39.808593 97.527343 106.371093 99.914062 178.570312zm-121.289062 207.101562c-2.886719 1.488282-5.773438 2.953126-8.710938 4.304688-1.816406.800781-3.648437 1.601562-5.480469 2.402344-2.769531 1.191406-5.601562 2.351562-8.375 3.421875-.945312.359375-1.898437.6875-2.839843 1.03125 7.265625-6.054688 14.023437-12.699219 20.199219-19.863281 3.75 1.785156 7.511718 3.519531 11.199218 5.554687-.421875.238281-.800781.511719-1.253906.742187-1.601562.832032-3.203125 1.601563-4.738281 2.40625zm-190.734375 6.699219c-1.832032-.800781-3.664063-1.554687-5.480469-2.402343-2.9375-1.351563-5.824219-2.816407-8.710937-4.304688-1.601563-.796875-3.160157-1.597656-4.722657-2.398438-.421875-.230468-.800781-.503906-1.253906-.742187 3.664063-2.027344 7.429687-3.761719 11.199219-5.546875 6.179687 7.164062 12.933594 13.808594 20.199218 19.863281-.945312-.34375-1.894531-.671875-2.839843-1.03125-2.832031-1.085937-5.625-2.246093-8.390625-3.4375zm-14.191406-404.90625c2.886718-1.488281 5.773437-2.949219 8.710937-4.304687 1.816406-.796875 3.648437-1.597656 5.480469-2.398438 2.765625-1.191406 5.597656-2.351562 8.375-3.425781.945312-.359375 1.894531-.6875 2.839844-1.03125-7.265626 6.058594-14.023438 12.699219-20.199219 19.863281-3.753907-1.78125-7.511719-3.519531-11.199219-5.550781.421875-.238281.796875-.511719 1.253906-.742187 1.601563-.832032 3.199219-1.601563 4.738282-2.410157zm190.734374-6.695312c1.832032.800781 3.664063 1.550781 5.480469 2.398437 2.9375 1.355469 5.824219 2.816406 8.710938 4.304688 1.601562.800781 3.199219 1.601562 4.722656 2.402344.421875.230468.796875.503906 1.253906.742187-3.664062 2.023437-7.433593 3.761719-11.199219 5.542969-6.179687-7.160156-12.933593-13.804688-20.199218-19.863282.941406.34375 1.894531.671876 2.839844 1.03125 2.832031 1.089844 5.621093 2.25 8.390624 3.441407zm-96.273437 429.441406c-28.921875-3.476563-55.457031-17.769531-74.277344-40 23.675781-9.410156 48.8125-14.632813 74.277344-15.433594zm16-55.433594c25.46875.816407 50.601563 6.042969 74.28125 15.457031-18.820313 22.234376-45.355469 36.523438-74.28125 40zm16-112.207031v16h-48v-16h-16v13.175781c-4.632813-2.695312-8.984375-5.847656-12.992187-9.410156 5.398437-23.402344 24.777343-40.984375 48.59375-44.085937l.800781-.039063c1.207031.101563 2.398437.359375 3.597656.359375 1.203125 0 2.402344-.257812 3.59375-.359375h.351563c23.984374 2.957031 43.570312 20.574219 49.046874 44.109375-4.003906 3.566406-8.355468 6.722656-12.992187 9.425781v-13.175781zm-20.421875-56.359375c-2.410156-.171875-4.832031-.171875-7.242188 0-12.40625-1.894531-21.257812-13.027344-20.308593-25.542969.949219-12.511718 11.378906-22.183594 23.929687-22.183594 12.550782 0 22.984375 9.671876 23.933594 22.183594.949219 12.515625-7.90625 23.648438-20.3125 25.542969zm61.710938 46.4375c-7.09375-17.992187-20.84375-32.5625-38.398438-40.679687 12.214844-11.105469 16.355469-28.578126 10.414062-43.984376-5.9375-15.40625-20.734374-25.582031-37.246093-25.613281s-31.34375 10.085938-37.34375 25.46875c-5.996094 15.382813-1.929688 32.871094 10.246093 44.027344-17.507812 8.199219-31.203124 22.800781-38.261718 40.796875-23.519532-33.210938-18.355469-78.789062 11.996094-105.898438 30.355468-27.109374 76.226562-27.109374 106.578124 0 30.355469 27.109376 35.519532 72.6875 12 105.898438zm-73.289063-214.285156c-25.464844-.816407-50.597656-6.046875-74.277344-15.457031 18.820313-22.234376 45.355469-36.527344 74.277344-40zm16-55.433594c28.921875 3.476563 55.460937 17.765625 74.28125 40-23.679687 9.410156-48.8125 14.632813-74.28125 15.433594zm-100.992187 52.800781c26.929687 11.429688 55.753906 17.746094 84.992187 18.632813v56.613281c-46.636719 3.953125-83.636719 40.953125-87.589844 87.59375h-48.28125c1.472657-65.175781 20.9375-123.328125 50.878907-162.832031zm-2.597657 178.839844c3.953125 46.640625 40.953125 83.636719 87.589844 87.589844v56.617187c-29.238281.882813-58.0625 7.203125-84.992187 18.632813-29.941407-39.511719-49.40625-97.664063-50.878907-162.839844zm188.582031 162.832031c-26.929687-11.425781-55.75-17.742187-84.992187-18.625v-56.617187c46.640625-3.953125 83.640625-40.949219 87.59375-87.589844h48.28125c-1.472656 65.175781-20.9375 123.328125-50.882813 162.832031zm2.601563-178.832031c-3.953125-46.640625-40.953125-83.640625-87.59375-87.59375v-56.613281c29.242187-.882813 58.066406-7.203125 84.992187-18.632813 29.945313 39.511719 49.410157 97.664063 50.882813 162.839844zm-219.433594-178.542969c5.351563 3.253907 10.792969 6.230469 16.3125 8.972657-30.992187 42.257812-50.871093 102.480468-52.335937 169.570312h-63.886719c2.394531-72.191406 39.636719-138.742188 99.910156-178.542969zm-99.910156 194.542969h63.886719c1.472656 67.085938 21.34375 127.3125 52.335937 169.597656-5.53125 2.742188-10.96875 5.734375-16.3125 8.96875-60.28125-39.804687-97.523437-106.367187-99.910156-178.566406zm347.589844 178.542969c-5.351563-3.253907-10.789063-6.230469-16.308594-8.976563 30.992187-42.253906 50.863281-102.480468 52.335937-169.597656h63.886719c-2.386719 72.199219-39.628906 138.765625-99.914062 178.574219zm0 0" fill="url(#a)"/></svg>