<svg height="512" viewBox="0 0 64 64" width="512" xmlns="http://www.w3.org/2000/svg" xmlns:xlink="http://www.w3.org/1999/xlink"><linearGradient id="gradient_ice" gradientUnits="userSpaceOnUse" x1="-5.467" x2="57.051" y1="69.002" y2="5.591"><stop offset="0" stop-color="#fff200"/><stop offset="1" stop-color="#cd118c"/></linearGradient><linearGradient id="gradient_ice-2" x1="8.414" x2="70.932" xlink:href="#gradient_ice" y1="82.687" y2="19.276"/><linearGradient id="gradient_ice-3" x1="6.532" x2="69.05" xlink:href="#gradient_ice" y1="80.832" y2="17.421"/><linearGradient id="gradient_ice-4" x1="-18.465" x2="44.052" xlink:href="#gradient_ice" y1="56.186" y2="-7.224"/><linearGradient id="gradient_ice-5" x1="-16.987" x2="45.53" xlink:href="#gradient_ice" y1="57.644" y2="-5.767"/><linearGradient id="gradient_ice-6" x1="-12.273" x2="50.245" xlink:href="#gradient_ice" y1="62.291" y2="-1.119"/><linearGradient id="gradient_ice-7" x1="-9.526" x2="52.992" xlink:href="#gradient_ice" y1="65" y2="1.589"/><linearGradient id="gradient_ice-8" x1="-12.716" x2="49.802" xlink:href="#gradient_ice" y1="61.855" y2="-1.556"/><linearGradient id="gradient_ice-9" x1="-8.038" x2="54.48" xlink:href="#gradient_ice" y1="66.467" y2="3.056"/><path d="m56 25h-4v-19a5.006 5.006 0 0 0 -5-5h-30a5.006 5.006 0 0 0 -5 5v50a5.006 5.006 0 0 0 5 5h30a5.006 5.006 0 0 0 5-5v-9h4a3 3 0 0 0 3-3v-16a3 3 0 0 0 -3-3zm1 3v1h-24v-2h23a1 1 0 0 1 1 1zm-24 3h24v2h-24zm-16-28h30a3 3 0 0 1 3 3v1h-36v-1a3 3 0 0 1 3-3zm30 56h-30a3 3 0 0 1 -3-3v-5h36v5a3 3 0 0 1 -3 3zm3-10h-36v-40h36v16h-17v-1h-2v24h2v-1h17zm6-4h-23v-10h24v9a1 1 0 0 1 -1 1z" fill="url(#gradient_ice)"/><path d="m52 37a2.978 2.978 0 0 0 -1.5.408 3 3 0 1 0 0 5.184 3 3 0 1 0 1.5-5.592zm0 4a.994.994 0 0 1 -.748-.348 1 1 0 0 0 -1.5 0 1 1 0 1 1 0-1.3 1.03 1.03 0 0 0 1.5 0 1 1 0 1 1 .748 1.648z" fill="url(#gradient_ice-2)"/><path d="m32 52a3 3 0 1 0 3 3 3 3 0 0 0 -3-3zm0 4a1 1 0 1 1 1-1 1 1 0 0 1 -1 1z" fill="url(#gradient_ice-3)"/><path d="m30 4h4v2h-4z" fill="url(#gradient_ice-4)"/><path d="m24 18h1.5a2.5 2.5 0 0 0 0-5h-2.5a1 1 0 0 0 -1 1v6h2zm2-2.5a.5.5 0 0 1 -.5.5h-1.5v-1h1.5a.5.5 0 0 1 .5.5z" fill="url(#gradient_ice-5)"/><path d="m31 18h2v2h2v-4a3 3 0 0 0 -6 0v4h2zm1-3a1 1 0 0 1 1 1h-2a1 1 0 0 1 1-1z" fill="url(#gradient_ice-6)"/><path d="m38 17.3v2.7h2v-2.7l1.832-2.748a1 1 0 1 0 -1.664-1.11l-1.168 1.758-1.168-1.752a1 1 0 0 0 -1.664 1.11z" fill="url(#gradient_ice-7)"/><path d="m24.5 23h15a6.5 6.5 0 0 0 0-13h-15a6.5 6.5 0 0 0 0 13zm0-11h15a4.5 4.5 0 0 1 0 9h-15a4.5 4.5 0 0 1 0-9z" fill="url(#gradient_ice-8)"/><path d="m28.349 30.241-1.961 1.681a5.959 5.959 0 1 0 1.112 1.678l2.153-1.845zm-2.349 5.759a4.019 4.019 0 1 1 -1.131-2.776l-2.817 2.414-1.345-1.345-1.414 1.414 2 2a1 1 0 0 0 1.358.052l3.209-2.751a3.92 3.92 0 0 1 .14.992z" fill="url(#gradient_ice-9)"/></svg>