<?xml version="1.0" encoding="utf-8"?>
<!-- Generator: Adobe Illustrator 19.0.0, SVG Export Plug-In . SVG Version: 6.00 Build 0)  -->
<svg version="1.1" id="Слой_1" xmlns="http://www.w3.org/2000/svg" xmlns:xlink="http://www.w3.org/1999/xlink" x="0px" y="0px"
	 viewBox="0 0 100 100" style="enable-background:new 0 0 100 100;" xml:space="preserve">
<style type="text/css">
	.st0{fill-rule:evenodd;clip-rule:evenodd;fill:#0081E4;}
</style>
<path class="st0" d="M50,100C22.4,100,0,77.6,0,50C0,22.4,22.4,0,50,0c27.6,0,50,22.4,50,50C100,77.6,77.6,100,50,100z M50,2
	C23.5,2,2,23.5,2,50c0,26.5,21.5,48,48,48c26.5,0,48-21.5,48-48C98,23.5,76.5,2,50,2z M73.7,50.7c-0.4,0.4-1.1,0.4-1.5,0l-8-8
	c-0.4-0.4-0.4-1,0-1.5c0.4-0.4,1.1-0.4,1.5,0l6.1,6.1C70.5,36.5,61.3,28,50,28c-11.1,0-20.3,8.3-21.8,19h-2C27.7,35.2,37.8,26,50,26
	c12.5,0,22.7,9.5,23.9,21.7l6.4-6.4c0.4-0.4,1.1-0.4,1.5,0c0.4,0.4,0.4,1,0,1.5L73.7,50.7z M40,50c0-5.5,4.5-10,10-10
	c5.5,0,10,4.5,10,10c0,5.5-4.5,10-10,10C44.5,60,40,55.5,40,50z M27.7,49.3l8,8c0.4,0.4,0.4,1,0,1.4c-0.4,0.4-1,0.4-1.4,0l-6.1-6.1
	C29.5,63.5,38.7,72,50,72c11.1,0,20.3-8.3,21.8-19h2C72.3,64.8,62.2,74,50,74c-12.5,0-22.7-9.5-23.9-21.6l-6.4,6.3
	c-0.4,0.4-1,0.4-1.4,0c-0.4-0.4-0.4-1,0-1.4l8-8C26.7,48.9,27.3,48.9,27.7,49.3z"/>
</svg>
