<?xml version="1.0" encoding="utf-8"?>
<!-- Generator: Adobe Illustrator 19.0.0, SVG Export Plug-In . SVG Version: 6.00 Build 0)  -->
<svg version="1.1" id="Слой_1" xmlns="http://www.w3.org/2000/svg" xmlns:xlink="http://www.w3.org/1999/xlink" x="0px" y="0px"
	 viewBox="0 0 100 100" style="enable-background:new 0 0 100 100;" xml:space="preserve">
<style type="text/css">
	.st0{fill-rule:evenodd;clip-rule:evenodd;fill:#0081E4;}
</style>
<path class="st0" d="M50,100C22.4,100,0,77.6,0,50C0,22.4,22.4,0,50,0c27.6,0,50,22.4,50,50C100,77.6,77.6,100,50,100z M50,2
	C23.5,2,2,23.5,2,50c0,26.5,21.5,48,48,48s48-21.5,48-48C98,23.5,76.5,2,50,2z M65.8,43.7c-0.4,0.4-1,0.4-1.4,0
	c-0.4-0.4-0.4-1.1,0-1.5l6.2-6.2H43.9c-0.5,4.5-4.3,8-8.9,8c-5,0-9-4-9-9c0-5,4-9,9-9c4.6,0,8.4,3.5,8.9,8h26.6l-6.3-6.3
	c-0.4-0.4-0.4-1.1,0-1.5c0.4-0.4,1-0.4,1.4,0l8,8c0.4,0.4,0.4,1.1,0,1.5L65.8,43.7z M35,28c-3.9,0-7,3.1-7,7s3.1,7,7,7
	c3.9,0,7-3.1,7-7S38.9,28,35,28z M34.3,56.3c0.4-0.4,1-0.4,1.4,0c0.4,0.4,0.4,1.1,0,1.5L29.5,64h26.6c0.5-4.5,4.3-8,8.9-8
	c5,0,9,4,9,9c0,5-4,9-9,9c-4.6,0-8.4-3.5-8.9-8H29.5l6.2,6.2c0.4,0.4,0.4,1.1,0,1.5c-0.4,0.4-1,0.4-1.4,0l-8-8
	c-0.4-0.4-0.4-1.1,0-1.5L34.3,56.3z M65,72c3.9,0,7-3.1,7-7s-3.1-7-7-7c-3.9,0-7,3.1-7,7S61.1,72,65,72z"/>
</svg>
