<svg version="1.1" xmlns="http://www.w3.org/2000/svg" xmlns:xlink="http://www.w3.org/1999/xlink" width="319px" height="64px" viewBox="0 0 319 64"><defs><g id="cross"><svg width="30" height="30" viewBox="0 0 30 30" xmlns="http://www.w3.org/2000/svg" fill="none"><path d="M7.93 7.93l14.14 14.14M7.93 22.07L22.07 7.93" stroke="#000" stroke-width="2" stroke-linecap="round"/></svg></g><g id="error"><svg width="64" height="64" viewBox="0 0 64 64" xmlns="http://www.w3.org/2000/svg" fill="none"><circle cx="32" cy="32" r="31" stroke="#D94C63" stroke-width="2"/><path d="M24.928 24.93L39.07 39.07M24.928 39.07L39.07 24.93" stroke="#D94C63" stroke-width="2" stroke-linecap="round"/></svg></g><g id="info-blue"><svg width="24" height="24" viewBox="0 0 24 24" xmlns="http://www.w3.org/2000/svg" fill="none"><circle cx="12" cy="12" r="12" fill="#4A76A8"/><circle cx="12" cy="7.5" r="1.5" fill="#fff"/><rect x="10.5" y="11" width="3" height="7" rx="1.5" fill="#fff"/></svg></g><g id="info"><svg width="24" height="24" viewBox="0 0 24 24" xmlns="http://www.w3.org/2000/svg" fill="none"><circle cx="12" cy="12" r="12" fill="#EDEEF0"/><circle cx="12" cy="7.5" r="1.5" fill="#4A76A8"/><rect x="10.5" y="11" width="3" height="7" rx="1.5" fill="#4A76A8"/></svg></g><g id="logo"><svg width="88" height="32" viewBox="0 0 88 32" xmlns="http://www.w3.org/2000/svg" fill="none"><path fill-rule="evenodd" clip-rule="evenodd" d="M10.966 0h9.702c8.858 0 10.966 2.133 10.966 11.093v9.813c0 8.96-2.108 11.094-10.966 11.094h-9.701C2.108 32 0 29.867 0 20.906v-9.813C0 2.133 2.11 0 10.966 0z" fill="#4A76A8"/><path fill-rule="evenodd" clip-rule="evenodd" d="M25.909 11.024c.145-.494-.002-.857-.7-.857h-2.306c-.586 0-.856.313-1.003.66 0 0-1.172 2.892-2.834 4.77-.537.544-.782.717-1.075.717-.145 0-.358-.173-.358-.667v-4.623c0-.593-.17-.857-.66-.857H13.35c-.366 0-.587.275-.587.536 0 .562.832.692.918 2.274v3.436c0 .753-.135.89-.428.89-.782 0-2.684-2.905-3.812-6.23-.22-.646-.443-.906-1.033-.906H6.1c-.66 0-.792.313-.792.66 0 .617.782 3.683 3.64 7.737 1.907 2.768 4.592 4.27 7.037 4.27 1.466 0 1.647-.334 1.647-.91v-2.09c0-.668.14-.8.603-.8.342 0 .93.172 2.297 1.507 1.564 1.584 1.822 2.293 2.702 2.293h2.306c.66 0 .99-.333.8-.99-.21-.657-.956-1.608-1.947-2.735-.537-.643-1.343-1.335-1.588-1.68-.342-.446-.245-.644 0-1.04 0 0 2.81-4.004 3.104-5.364z" fill="#fff"/><path d="M50.266 20.294c2.12 0 3.754-1.65 3.754-4.128 0-2.476-1.633-4.127-3.755-4.127-2.12 0-3.754 1.65-3.754 4.126 0 2.477 1.634 4.128 3.756 4.128zm7.507-4.128c0 4.457-3.263 7.76-7.018 7.76-2.448 0-3.917-1.486-3.917-1.486v6.604h-3.754V8.57h2.775l.65 1.487s1.634-1.65 4.245-1.65c3.755 0 7.018 3.3 7.018 7.76zM68.405 17.817v-.66c-4.407 0-5.223.826-5.223 2.146 0 .826.816 1.65 1.96 1.65 1.957 0 3.263-1.32 3.263-3.136zm3.755-3.467v9.41h-2.775l-.654-1.486s-1.63 1.652-4.242 1.652c-3.265 0-5.06-1.816-5.06-4.292 0-2.973 2.122-5.12 8.977-5.12 0-1.65-.98-2.64-2.45-2.64-1.956 0-2.283 1.65-2.283 1.65h-3.754c.326-2.806 2.61-5.118 6.365-5.118 3.428 0 5.877 2.477 5.877 5.944zM72.984 8.57H76.9l3.755 9.907 3.428-9.906H88s-5.712 14.86-6.04 15.686c-1.468 3.633-2.774 4.953-5.22 4.953-.654 0-1.307-.166-1.307-.166v-3.137c1.632 0 2.48-.826 2.937-1.98l.326-.827-5.712-14.53z" fill="#4A76A8"/></svg></g><g id="success"><svg width="64" height="64" viewBox="0 0 64 64" xmlns="http://www.w3.org/2000/svg" fill="none"><circle cx="32" cy="32" r="31" stroke="#4A76A8" stroke-width="2"/><path d="M21 34l6 6 16-16" stroke="#4A76A8" stroke-width="2" stroke-linecap="round"/></svg></g></defs><g><use xlink:href="#logo" transform="translate(0 0), scale(1,1)"></use><use xlink:href="#cross" transform="translate(93 0), scale(1,1)"></use><use xlink:href="#info" transform="translate(128 0), scale(1,1)"></use><use xlink:href="#info-blue" transform="translate(157 0), scale(1,1)"></use><use xlink:href="#success" transform="translate(186 0), scale(1,1)"></use><use xlink:href="#error" transform="translate(255 0), scale(1,1)"></use></g></svg>