<svg xmlns="http://www.w3.org/2000/svg" xmlns:xlink="http://www.w3.org/1999/xlink" width="87.93950000000002" height="35.400000000000006"><path fill="#000" d="M13.84 26.82L7.26 26.82C8.05 25.84 8.53 23.75 8.79 20.59C9.03 17.55 9.17 13.48 9.26 8.14L13.84 8.14ZM15.61 31.54L16.76 31.54L16.76 26.82L15.31 26.82L15.31 6.93L7.94 6.93C7.85 12.80 7.76 17.46 7.46 20.59C7.17 23.60 6.67 25.96 5.63 26.82L5.02 26.82L5.02 31.54L6.17 31.54L6.37 28.03L15.40 28.03ZM22.77 28.32C25.34 28.32 27.32 25.43 27.32 20.50C27.32 15.40 25.34 12.86 22.77 12.86C20.21 12.86 18.23 15.72 18.23 20.68C18.23 25.75 20.21 28.32 22.77 28.32ZM22.77 27.20C21.03 27.20 19.62 25.22 19.62 20.59C19.62 16.08 21.03 14.01 22.77 14.01C24.51 14.01 25.93 15.93 25.93 20.59C25.93 25.08 24.51 27.20 22.77 27.20ZM34.01 27.11C31.71 27.11 30.68 24.69 30.68 20.62C30.68 16.43 31.74 14.04 34.01 14.04C35.28 14.04 36.23 14.81 36.88 15.72L37.26 14.25C36.61 13.45 35.55 12.86 34.01 12.86C30.98 12.86 29.29 15.72 29.29 20.62C29.29 25.46 31.00 28.32 33.98 28.32C36.31 28.32 37.41 26.67 37.41 26.67L36.96 25.52C36.96 25.52 35.93 27.11 34.01 27.11ZM46.85 14.31L46.85 13.16L38.59 13.16L38.59 14.31L42.04 14.31L42.04 28.03L43.42 28.03L43.42 14.31ZM51.71 27.20C50.30 27.20 49.38 25.99 49.38 23.90C49.38 21.30 50.56 20.18 53.01 20.18L54.60 20.18L54.60 24.28C54.07 25.87 53.10 27.20 51.71 27.20ZM55.02 28.03L56.29 28.03C56.11 27.46 55.96 26.31 55.96 25.28L55.96 17.17C55.96 14.22 54.58 12.86 52.13 12.86C50.45 12.86 49.21 13.60 48.62 14.37L49.00 15.69C49.71 14.66 50.86 14.07 52.13 14.07C53.75 14.07 54.60 15.05 54.60 17.32L54.60 19.18L52.98 19.18C49.77 19.18 48.03 20.83 48.03 24.01C48.03 26.73 49.41 28.32 51.42 28.32C52.89 28.32 53.96 27.44 54.66 26.02C54.75 27.08 54.90 27.64 55.02 28.03ZM62.33 28.03C65.14 28.03 66.99 26.67 66.99 23.75C66.99 21.95 66.14 20.71 64.22 20.15C65.67 19.50 66.32 18.26 66.32 16.76C66.32 14.40 64.90 13.16 62.27 13.16L59.15 13.16L59.15 28.03ZM62.22 14.25C63.93 14.25 64.99 14.93 64.99 16.82C64.99 18.88 63.84 19.77 62.22 19.77L60.50 19.77L60.50 14.25ZM62.30 20.80C64.46 20.80 65.61 21.68 65.61 23.84C65.61 26.14 64.25 26.96 62.33 26.96L60.50 26.96L60.50 20.80ZM70.86 20.33L76.02 28.03L77.56 28.03L72.30 20.06L77.20 13.16L75.84 13.16L70.86 20.15L70.86 13.16L69.47 13.16L69.47 28.03L70.86 28.03ZM82.16 27.20C80.74 27.20 79.83 25.99 79.83 23.90C79.83 21.30 81.01 20.18 83.46 20.18L85.05 20.18L85.05 24.28C84.52 25.87 83.54 27.20 82.16 27.20ZM85.46 28.03L86.73 28.03C86.55 27.46 86.41 26.31 86.41 25.28L86.41 17.17C86.41 14.22 85.02 12.86 82.57 12.86C80.89 12.86 79.65 13.60 79.06 14.37L79.44 15.69C80.15 14.66 81.30 14.07 82.57 14.07C84.19 14.07 85.05 15.05 85.05 17.32L85.05 19.18L83.43 19.18C80.21 19.18 78.47 20.83 78.47 24.01C78.47 26.73 79.86 28.32 81.86 28.32C83.34 28.32 84.40 27.44 85.11 26.02C85.20 27.08 85.34 27.64 85.46 28.03Z"/></svg>