<svg 
 xmlns="http://www.w3.org/2000/svg"
 xmlns:xlink="http://www.w3.org/1999/xlink"
 width="59px" height="54px">
<path fill-rule="evenodd"  fill="#ffc607"
 d="M57.014,36.192 C53.217,43.353 43.241,54.006 31.329,54.006 C27.531,54.006 23.415,52.224 19.785,50.650 C16.736,49.329 13.859,48.082 11.661,48.082 C10.228,48.082 8.638,48.778 6.801,50.209 C5.351,51.338 4.129,52.613 4.116,52.626 C3.691,53.071 3.313,53.183 3.037,53.183 C2.923,53.183 2.828,53.164 2.755,53.142 C2.504,53.063 2.066,52.804 1.939,51.946 L1.208,47.008 L0.004,38.860 C-0.062,38.407 0.133,37.821 0.459,37.496 L4.458,33.503 C4.458,33.503 4.459,33.503 4.459,33.502 L4.459,33.502 C12.889,25.164 21.666,30.475 25.414,32.742 C25.857,33.009 26.231,33.236 26.528,33.394 C30.354,35.422 34.610,35.850 39.530,35.102 C40.122,35.012 40.752,34.835 41.407,34.598 C42.993,34.485 43.946,34.853 44.493,35.254 C45.336,35.875 45.488,36.731 45.504,37.184 C45.555,38.627 44.576,39.639 42.018,40.801 C40.074,41.685 36.624,41.793 33.578,41.887 C32.908,41.908 32.252,41.928 31.625,41.956 C28.170,42.112 25.661,43.046 25.556,43.087 C25.088,43.263 24.855,43.781 25.032,44.245 C25.169,44.603 25.515,44.822 25.881,44.822 C25.989,44.822 26.097,44.804 26.203,44.764 C26.228,44.757 28.561,43.894 31.707,43.750 C32.325,43.724 32.973,43.704 33.635,43.683 C36.852,43.582 40.497,43.468 42.774,42.433 C45.076,41.390 47.416,39.942 47.320,37.123 C47.274,35.800 46.637,34.594 45.576,33.814 C45.272,33.592 44.890,33.374 44.422,33.197 C45.628,32.540 46.864,31.779 48.084,30.989 C52.481,28.147 56.635,25.463 58.540,28.189 C59.508,29.575 58.937,32.566 57.014,36.192 ZM34.087,27.884 C26.301,27.884 19.989,21.641 19.991,13.942 C19.989,6.245 26.301,0.002 34.087,0.002 C41.870,0.002 48.183,6.245 48.183,13.942 C48.183,21.641 41.870,27.884 34.087,27.884 ZM34.791,8.769 C35.715,8.769 36.427,9.180 36.862,9.522 C37.231,9.813 37.745,9.785 38.025,9.455 L38.973,8.365 C39.280,8.008 39.256,7.449 38.920,7.144 C38.353,6.635 37.198,5.774 35.727,5.598 L35.727,4.162 C35.727,3.698 35.346,3.322 34.877,3.322 L33.737,3.322 C33.508,3.322 33.296,3.409 33.135,3.569 C32.975,3.727 32.886,3.937 32.887,4.162 L32.886,5.793 C30.529,6.358 29.125,8.103 29.125,10.483 C29.125,13.363 31.396,14.582 33.375,15.324 C35.057,15.954 35.711,16.539 35.711,17.403 C35.711,18.301 34.944,18.835 33.660,18.835 C32.495,18.835 31.592,18.341 30.767,17.835 C30.382,17.595 29.838,17.725 29.606,18.106 L28.716,19.556 C28.598,19.751 28.559,19.986 28.617,20.205 C28.671,20.423 28.808,20.604 29.001,20.717 C29.839,21.195 31.417,21.996 32.773,22.118 L32.773,23.726 C32.773,24.188 33.152,24.564 33.620,24.565 L34.765,24.565 C35.232,24.565 35.612,24.189 35.612,23.726 L35.612,21.919 C38.065,21.392 39.583,19.537 39.583,17.049 C39.583,14.674 38.402,13.194 35.638,12.106 C33.617,11.262 32.969,10.761 32.969,10.046 C32.969,9.234 33.634,8.769 34.791,8.769 Z"/>
</svg>