<svg 
 xmlns="http://www.w3.org/2000/svg"
 xmlns:xlink="http://www.w3.org/1999/xlink"
 width="55px" height="55px">
<path fill-rule="evenodd"  fill="#ffc607"
 d="M54.766,7.367 L47.632,0.236 L51.896,-0.010 C51.978,-0.010 51.978,-0.010 52.060,-0.010 C53.700,-0.010 55.094,1.383 55.012,3.105 L54.766,7.367 ZM43.204,31.140 L30.001,40.239 C29.427,40.731 28.853,41.141 28.197,41.469 L28.361,42.616 L29.099,47.535 C29.263,48.272 28.935,49.010 28.279,49.420 L23.523,52.699 C22.867,53.109 22.211,53.273 21.637,53.273 C19.177,53.273 17.291,50.485 18.931,48.108 L19.915,46.715 C20.161,46.305 20.325,45.813 20.243,45.321 L20.161,44.911 C18.357,45.485 17.209,45.649 16.389,45.649 C15.323,45.649 14.913,45.239 14.667,44.993 L9.993,40.321 C9.583,39.911 8.845,39.091 10.157,34.829 L9.747,34.747 C9.665,34.747 9.583,34.747 9.501,34.747 C9.091,34.747 8.681,34.829 8.353,35.075 L6.959,36.058 C6.303,36.550 5.729,36.714 5.073,36.714 C2.695,36.714 0.727,33.927 2.367,31.550 L5.647,26.795 C6.057,26.221 6.631,25.893 7.287,25.893 C7.369,25.893 7.451,25.893 7.533,25.893 L12.453,26.631 L13.601,26.795 C13.929,26.139 14.339,25.566 14.831,24.992 L23.933,11.712 C29.509,5.154 37.381,1.137 45.910,0.318 L54.602,9.171 C53.864,17.696 49.764,25.566 43.204,31.140 ZM37.955,11.630 C36.561,11.630 35.249,12.122 34.183,13.188 C32.133,15.237 32.133,18.598 34.183,20.647 C35.249,21.713 36.561,22.205 37.955,22.205 C39.349,22.205 40.661,21.713 41.728,20.647 C43.778,18.598 43.778,15.237 41.728,13.188 C40.661,12.122 39.349,11.630 37.955,11.630 ZM3.708,42.602 C3.743,42.579 3.776,42.553 3.812,42.531 C4.836,41.873 6.009,41.548 7.173,41.553 C7.184,41.553 7.194,41.550 7.205,41.550 C7.212,41.550 7.219,41.553 7.226,41.553 C7.549,41.557 7.871,41.577 8.189,41.632 C8.599,41.714 9.009,41.960 9.255,42.206 L12.699,45.649 C13.027,45.977 13.191,46.305 13.273,46.715 C13.321,47.003 13.343,47.293 13.353,47.583 C13.445,49.261 12.845,50.995 11.551,52.289 C11.469,52.453 11.305,52.535 11.223,52.617 C9.255,54.338 7.451,54.994 5.811,54.994 C3.351,54.994 1.383,53.519 0.153,52.289 C0.107,52.244 0.091,52.193 0.089,52.142 C0.083,52.136 0.076,52.130 0.071,52.125 C-0.094,52.043 -0.012,51.797 0.235,51.797 C0.574,51.873 0.929,51.851 1.264,51.753 C1.333,51.728 1.403,51.706 1.471,51.674 C1.512,51.657 1.550,51.633 1.590,51.613 C1.851,51.472 2.096,51.286 2.285,51.059 C2.941,50.322 2.941,49.092 2.285,48.272 C2.285,48.190 2.203,48.108 2.203,48.108 C2.039,47.944 1.875,47.780 1.711,47.698 C1.629,47.698 1.547,47.616 1.465,47.535 C1.137,47.207 1.055,46.797 1.137,46.387 C1.383,45.239 1.875,44.255 2.777,43.354 C3.065,43.065 3.381,42.821 3.708,42.602 ZM4.007,46.387 C4.089,46.469 4.171,46.551 4.253,46.633 C4.924,47.430 5.269,48.420 5.307,49.428 C5.359,50.389 5.124,51.368 4.618,52.216 C5.126,52.387 5.610,52.452 6.070,52.435 C6.100,52.433 6.130,52.431 6.160,52.428 C6.299,52.420 6.432,52.395 6.566,52.373 C7.772,52.142 8.764,51.400 9.583,50.650 C9.616,50.650 9.649,50.629 9.682,50.608 C9.703,50.540 9.760,50.472 9.829,50.403 C10.442,49.790 10.825,48.994 10.911,48.151 C10.932,47.893 10.932,47.632 10.895,47.370 L7.697,44.173 C7.533,44.173 7.369,44.173 7.205,44.173 C6.221,44.173 5.319,44.501 4.581,45.239 C4.268,45.552 4.035,45.868 3.872,46.252 C3.900,46.280 3.948,46.328 4.007,46.387 Z"/>
</svg>