<svg 
 xmlns="http://www.w3.org/2000/svg"
 xmlns:xlink="http://www.w3.org/1999/xlink"
 width="60px" height="51px">
<path fill-rule="evenodd"  fill="#ffc607"
 d="M58.632,27.833 C59.966,30.160 60.322,32.257 59.692,34.069 C59.119,35.711 57.769,37.005 55.788,37.811 C55.686,37.852 55.562,37.882 55.452,37.919 C55.928,39.897 54.515,44.022 52.090,45.017 C51.451,45.276 50.716,45.438 49.943,45.528 C49.677,46.836 48.966,48.908 47.056,49.693 C46.151,50.063 45.055,50.236 43.929,50.236 C42.671,50.236 41.380,50.016 40.265,49.622 C38.346,50.652 35.415,50.990 32.692,50.990 C30.280,50.990 28.030,50.725 26.787,50.440 C24.882,50.004 23.439,49.068 22.356,47.937 C22.330,47.938 22.309,47.952 22.282,47.952 C22.277,47.951 22.273,47.951 22.267,47.952 L8.826,47.952 C3.879,47.952 0.005,41.898 0.005,34.171 C0.005,26.447 3.880,20.397 8.826,20.397 L22.267,20.397 C22.591,20.397 22.875,20.520 23.120,20.693 C24.303,20.001 25.461,19.095 26.323,17.921 C29.295,13.897 29.384,10.829 29.437,8.996 C29.452,8.499 28.993,7.440 28.624,6.589 C27.811,4.714 26.583,1.879 29.041,0.674 C31.824,-0.695 33.877,0.225 36.098,2.024 C40.442,5.560 40.851,9.273 40.874,10.328 C40.897,11.741 40.626,14.385 38.703,17.152 C40.008,19.184 42.555,24.163 40.494,29.645 C38.192,35.771 32.729,36.830 32.497,36.871 C32.406,36.890 32.314,36.897 32.225,36.897 C31.516,36.897 30.886,36.396 30.753,35.682 C30.603,34.876 31.143,34.103 31.956,33.955 C32.110,33.925 35.994,33.113 37.686,28.612 C39.719,23.200 35.722,18.092 35.681,18.042 C35.245,17.496 35.250,16.719 35.695,16.180 C37.542,13.945 37.901,11.795 37.877,10.384 C37.866,9.868 37.638,7.118 34.198,4.319 C32.332,2.807 31.594,2.777 30.585,3.232 C30.648,3.737 31.097,4.771 31.378,5.419 C31.914,6.655 32.467,7.933 32.432,9.083 C32.378,10.971 32.264,14.904 28.745,19.669 C25.787,23.696 20.485,25.147 18.841,25.512 C17.400,27.502 16.444,30.669 16.444,34.171 C16.444,38.605 17.971,42.515 20.081,44.158 C19.759,43.237 19.585,42.375 19.532,41.701 C19.467,40.883 20.083,40.171 20.908,40.106 C21.736,40.043 22.453,40.652 22.518,41.469 C22.536,41.670 23.013,46.532 27.462,47.551 C30.047,48.144 34.669,48.238 37.437,47.531 C36.715,46.214 36.479,44.144 37.282,42.574 C37.672,41.812 38.582,40.688 40.480,40.394 C40.343,39.271 40.470,38.060 40.992,37.039 C41.318,36.399 41.977,35.526 43.189,34.997 C42.583,33.599 42.492,31.675 43.356,30.237 C43.481,30.029 43.661,29.799 43.876,29.571 C43.801,29.502 43.708,29.439 43.642,29.367 C42.512,28.121 42.008,25.571 43.054,23.756 C43.643,22.734 45.205,21.132 49.045,21.897 C49.856,22.058 50.382,22.840 50.219,23.642 C50.054,24.446 49.264,24.963 48.455,24.805 C47.766,24.668 46.114,24.434 45.658,25.226 C45.267,25.904 45.604,27.090 45.870,27.382 C46.170,27.711 47.011,28.043 48.053,28.298 C48.487,28.340 48.952,28.415 49.461,28.539 C49.504,28.549 49.535,28.579 49.576,28.592 C51.259,28.833 53.058,28.832 53.979,28.339 C55.304,27.629 56.356,25.160 55.783,22.918 C55.064,20.112 52.082,18.566 47.383,18.566 C46.556,18.566 45.885,17.902 45.885,17.083 C45.885,16.265 46.556,15.600 47.383,15.600 C56.063,15.600 58.181,20.209 58.688,22.190 C59.137,23.945 58.950,25.837 58.304,27.460 C58.428,27.567 58.546,27.684 58.632,27.833 ZM39.966,43.894 C39.562,44.647 39.863,45.911 40.118,46.214 C40.838,46.998 44.104,47.691 45.909,46.952 C46.318,46.785 46.651,46.186 46.865,45.496 C44.726,45.221 42.701,44.456 41.671,43.328 C41.660,43.316 41.651,43.298 41.640,43.285 C40.341,43.222 40.060,43.720 39.966,43.894 ZM43.666,38.377 C43.153,39.383 43.560,40.974 43.893,41.337 C44.895,42.434 48.851,43.126 50.946,42.275 C51.800,41.923 52.720,39.392 52.546,38.616 C52.523,38.539 52.535,38.462 52.525,38.384 C52.309,38.393 52.096,38.406 51.874,38.406 C49.973,38.406 47.900,38.100 46.271,37.521 C46.240,37.520 46.213,37.532 46.182,37.529 C44.193,37.328 43.798,38.117 43.666,38.377 ZM56.464,30.182 C56.135,30.478 55.786,30.744 55.405,30.948 C54.439,31.466 53.004,31.701 51.453,31.701 C50.159,31.701 48.792,31.530 47.539,31.230 C46.873,31.190 46.213,31.287 45.931,31.755 C45.481,32.503 45.830,33.827 46.112,34.134 C46.990,35.096 52.362,36.003 54.646,35.068 C55.459,34.737 56.500,34.128 56.858,33.101 C57.129,32.323 56.984,31.338 56.464,30.182 Z"/>
</svg>