<svg 
 xmlns="http://www.w3.org/2000/svg"
 xmlns:xlink="http://www.w3.org/1999/xlink"
 width="56px" height="68px">
<path fill-rule="evenodd"  fill="#ffc607"
 d="M55.963,19.174 L10.555,57.599 C9.590,56.537 8.680,55.427 7.829,54.273 C6.515,52.508 5.350,50.638 4.345,48.681 L50.373,9.753 L55.322,11.943 C55.793,12.105 56.080,12.581 56.004,13.072 C55.963,15.106 55.963,17.140 55.963,19.174 ZM0.548,37.070 C0.237,35.108 0.075,33.125 0.064,31.139 C-0.004,25.085 0.064,19.024 0.003,12.970 C-0.054,12.512 0.237,12.082 0.684,11.964 C9.587,8.032 18.495,4.089 27.407,0.135 C27.812,-0.069 28.290,-0.069 28.695,0.135 L44.176,7.005 L1.912,42.736 C1.319,40.883 0.864,38.990 0.548,37.070 ZM55.990,30.731 C56.026,39.623 53.020,48.262 47.469,55.218 C42.890,61.237 36.507,65.643 29.247,67.795 C28.402,68.061 27.495,68.061 26.650,67.795 C22.443,66.540 18.512,64.505 15.061,61.796 L55.990,27.194 C55.990,28.370 55.990,29.554 55.990,30.731 Z"/>
</svg>