<svg 
 xmlns="http://www.w3.org/2000/svg"
 xmlns:xlink="http://www.w3.org/1999/xlink"
 width="65px" height="52px">
<path fill-rule="evenodd"  fill="#ffc607"
 d="M64.860,13.952 C64.776,14.072 64.645,14.159 64.455,14.159 C63.120,14.159 61.785,14.159 60.450,14.159 C56.749,14.159 53.049,14.159 49.349,14.159 C49.117,14.159 48.901,13.997 48.841,13.767 C48.663,13.082 48.485,12.396 48.307,11.711 C47.352,8.039 46.398,4.367 45.443,0.695 C45.356,0.360 45.606,0.019 45.951,0.019 C47.933,0.019 49.916,0.019 51.898,0.019 C52.947,0.019 53.995,0.019 55.043,0.019 C55.480,0.019 56.179,-0.116 56.455,0.310 C57.248,1.533 58.040,2.756 58.833,3.978 C60.858,7.104 62.884,10.230 64.910,13.356 C65.058,13.584 65.001,13.803 64.860,13.952 ZM44.784,14.159 C44.302,14.159 43.820,14.159 43.338,14.159 C39.008,14.159 34.678,14.159 30.348,14.159 C27.300,14.159 24.251,14.159 21.203,14.159 C20.858,14.159 20.608,13.819 20.695,13.484 C20.873,12.798 21.052,12.113 21.230,11.427 C22.184,7.755 23.139,4.083 24.093,0.411 C24.153,0.182 24.369,0.020 24.601,0.020 C26.595,0.020 28.588,0.020 30.582,0.020 C34.183,0.020 37.784,0.020 41.386,0.020 C41.618,0.020 41.834,0.182 41.893,0.411 C42.072,1.097 42.250,1.782 42.428,2.468 C43.382,6.140 44.337,9.812 45.291,13.484 C45.340,13.670 45.291,13.821 45.198,13.935 C45.115,14.064 44.982,14.159 44.784,14.159 ZM20.009,2.751 C19.055,6.423 18.100,10.095 17.146,13.767 C17.086,13.996 16.870,14.159 16.638,14.159 C15.303,14.159 13.968,14.159 12.632,14.159 C8.932,14.159 5.232,14.159 1.532,14.159 C1.148,14.159 0.854,13.700 1.077,13.356 C1.875,12.125 2.673,10.893 3.471,9.661 C5.497,6.536 7.523,3.410 9.549,0.284 C9.561,0.265 9.578,0.257 9.591,0.241 C9.622,0.193 9.662,0.154 9.709,0.119 C9.710,0.119 9.710,0.119 9.710,0.119 C9.789,0.062 9.881,0.019 10.003,0.019 C10.004,0.019 10.004,0.019 10.004,0.019 C13.348,0.019 16.692,0.019 20.036,0.019 C20.381,0.019 20.631,0.360 20.544,0.695 C20.366,1.380 20.187,2.066 20.009,2.751 ZM1.652,17.564 C2.968,17.564 4.283,17.564 5.599,17.564 C9.300,17.564 13.001,17.564 16.702,17.564 C16.959,17.564 17.118,17.717 17.180,17.908 C17.188,17.925 17.202,17.936 17.209,17.955 C17.432,18.559 17.655,19.162 17.877,19.766 C19.258,23.507 20.639,27.249 22.020,30.990 C23.691,35.517 25.361,40.044 27.032,44.572 C27.845,46.772 28.657,48.973 29.469,51.174 C29.651,51.667 28.921,52.097 28.589,51.693 C28.495,51.578 28.400,51.464 28.306,51.349 C26.492,49.142 24.678,46.935 22.863,44.728 C19.812,41.016 16.760,37.304 13.709,33.592 C10.838,30.101 7.967,26.608 5.096,23.116 C3.824,21.569 2.552,20.022 1.280,18.475 C0.997,18.131 1.162,17.564 1.652,17.564 ZM23.360,25.054 C22.542,22.782 21.724,20.511 20.906,18.239 C20.787,17.909 21.092,17.564 21.414,17.564 C21.793,17.564 22.173,17.564 22.553,17.564 C26.806,17.564 31.058,17.564 35.311,17.564 C38.398,17.564 41.486,17.564 44.573,17.564 C44.707,17.564 44.807,17.613 44.888,17.679 C45.065,17.785 45.174,17.980 45.081,18.239 C44.951,18.599 44.822,18.958 44.693,19.317 C43.427,22.832 42.161,26.347 40.896,29.862 C39.249,34.436 37.602,39.010 35.955,43.584 C35.137,45.855 34.319,48.127 33.501,50.399 C33.319,50.905 32.668,50.905 32.486,50.399 C32.356,50.039 32.227,49.680 32.098,49.321 C30.832,45.805 29.566,42.290 28.301,38.775 C26.654,34.201 25.007,29.628 23.360,25.054 ZM37.167,49.413 C38.558,45.645 39.949,41.877 41.339,38.109 C43.009,33.585 44.679,29.061 46.349,24.537 C47.158,22.343 47.968,20.150 48.778,17.955 C48.861,17.730 49.035,17.564 49.286,17.564 C50.601,17.564 51.917,17.564 53.233,17.564 C56.893,17.564 60.553,17.564 64.214,17.564 C64.321,17.536 64.429,17.549 64.527,17.603 C64.795,17.704 64.893,18.009 64.821,18.264 C64.820,18.267 64.820,18.269 64.820,18.271 C64.798,18.344 64.764,18.412 64.714,18.469 C64.712,18.471 64.712,18.473 64.711,18.475 C64.606,18.603 64.501,18.730 64.396,18.858 C62.560,21.097 60.724,23.335 58.888,25.574 C55.836,29.295 52.783,33.016 49.731,36.738 C46.868,40.228 44.006,43.718 41.143,47.208 C39.876,48.752 38.610,50.296 37.343,51.841 C37.011,52.245 36.281,51.814 36.463,51.321 C36.698,50.685 36.933,50.049 37.167,49.413 Z"/>
</svg>