<svg version="1.1" xmlns="http://www.w3.org/2000/svg" xmlns:xlink="http://www.w3.org/1999/xlink" width="272px" height="65px" viewBox="0 0 272 65"><defs><g id="alert"><path  fill-rule="evenodd" d="M57.847 53.966H3.387c-2.79 0-4.143-2.895-2.917-5.1C2.14 45.85 26.205 4.233 27.707 1.685c1.346-2.284 4.554-2.323 5.9 0 2.047 3.54 25.988 44.998 27.174 47.072 1.483 2.59-.4 5.208-2.933 5.208zM33.103 21.204c0-2.16-.84-3.24-2.52-3.24-1.655 0-2.482 1.08-2.482 3.24V35.62c0 2.24.842 3.36 2.522 3.36 1.654 0 2.48-1.12 2.48-3.36V21.204zm-.72 20.58c-.493-.495-1.08-.742-1.762-.742-.68 0-1.27.247-1.762.74-.494.495-.74 1.082-.74 1.764 0 .682.246 1.27.74 1.763.493.493 1.08.74 1.763.74.682 0 1.27-.247 1.764-.74.493-.495.74-1.082.74-1.764 0-.682-.247-1.27-.74-1.763z"/></g><g id="fail"><path  fill-rule="evenodd" d="M32.493 65.004c-17.95 0-32.5-14.55-32.5-32.5s14.55-32.5 32.5-32.5 32.5 14.55 32.5 32.5-14.55 32.5-32.5 32.5zm16.487-35.03H16.033c-1.578 0-2.857 1.118-2.858 2.497 0 1.38 1.28 2.5 2.858 2.5H48.98c1.577 0 2.856-1.12 2.856-2.5 0-1.378-1.28-2.497-2.856-2.497z"/></g><g id="load"><path  fill-rule="evenodd" d="M32.493 65.004c-17.95 0-32.5-14.55-32.5-32.5s14.55-32.5 32.5-32.5 32.5 14.55 32.5 32.5-14.55 32.5-32.5 32.5zM13.383 34.55c-.34.34-.552.81-.552 1.33v8.045c0 1.04.844 1.884 1.885 1.884 1.04 0 1.884-.844 1.884-1.885V40.05c2.83 5.923 8.86 10.02 15.863 10.02 7.382 0 13.69-4.55 16.304-10.996.078-.136.146-.28.188-.44l.065-.243c.057-.156.122-.31.174-.468h-.072c.13-.93-.44-1.83-1.37-2.078-1.005-.27-2.038.327-2.307 1.332l-.13.483c-.023.087-.032.174-.042.262h-.114c-2.106 4.954-7.016 8.43-12.738 8.43-5.782 0-10.73-3.552-12.794-8.59h3.134c1.04 0 1.884-.844 1.884-1.885 0-1.04-.844-1.884-1.884-1.884h-8.044c-.522 0-.994.213-1.335.556zm38.67-13.492c0-1.04-.842-1.884-1.883-1.884-1.04 0-1.884.844-1.884 1.884v3.78c-2.838-5.898-8.84-9.977-15.823-9.977-7.364 0-13.664 4.527-16.29 10.946-.106.162-.196.34-.25.537l-.128.482c-.002.006 0 .012-.003.018-.024.072-.054.14-.078.212h.044c-.13.928.44 1.83 1.37 2.078 1.004.27 2.037-.327 2.307-1.333l.13-.482c.023-.088.03-.176.042-.263h.108c2.12-4.922 7.01-8.37 12.707-8.37 5.762 0 10.693 3.527 12.77 8.537h-3.07c-1.04 0-1.883.843-1.883 1.884 0 1.04.843 1.884 1.883 1.884h8.044c.522 0 .994-.212 1.335-.555.34-.34.552-.812.552-1.333v-8.044z"/></g><g id="success"><path  fill-rule="evenodd" d="M32.493 65.004c-17.95 0-32.5-14.55-32.5-32.5s14.55-32.5 32.5-32.5 32.5 14.55 32.5 32.5-14.55 32.5-32.5 32.5zm17.21-44.68c-.785-.786-2.058-.786-2.843 0l-19.09 19.09-9.67-9.668c-.785-.785-2.058-.785-2.843 0-.785.785-.785 2.058 0 2.843l10.887 10.886c.436.436 1.023.62 1.594.572.588.067 1.2-.116 1.65-.567l20.316-20.314c.785-.785.785-2.058 0-2.843z"/></g></defs><g><use xlink:href="#alert" fill="#fde280" transform="translate(0 0), scale(1.0163934426229508,0.9814814814814815)"></use><use xlink:href="#fail" fill="#e57f7f" transform="translate(67 0), scale(1,1)"></use><use xlink:href="#load" fill="#dbdbdb" transform="translate(137 0), scale(1,1)"></use><use xlink:href="#success" fill="#a1dd74" transform="translate(207 0), scale(1,1)"></use></g></svg>