<?xml version="1.0" standalone="no"?>
<!DOCTYPE svg PUBLIC "-//W3C//DTD SVG 1.1//EN" "http://www.w3.org/Graphics/SVG/1.1/DTD/svg11.dtd" >
<svg xmlns="http://www.w3.org/2000/svg">
<metadata>Generated by IcoMoon</metadata>
<defs>
<font id="hydra" horiz-adv-x="1024">
<font-face units-per-em="1024" ascent="1013.76" descent="-10.24" />
<missing-glyph horiz-adv-x="1024" />
<glyph unicode="&#x20;" horiz-adv-x="10.24" d="" />
<glyph unicode="&#xe900;" glyph-name="arrow_down" d="M30.72 645.12c-40.96 40.96-40.96 102.4 0 143.36s102.4 40.96 143.36 0l337.92-337.92 337.92 337.92c40.96 40.96 102.4 40.96 143.36 0s40.96-102.4 0-143.36l-409.6-409.6c-40.96-40.96-102.4-40.96-143.36 0l-409.6 409.6z" />
<glyph unicode="&#xe901;" glyph-name="arrow_left" d="M645.12 993.28c40.96 40.96 102.4 40.96 143.36 0s40.96-102.4 0-143.36l-337.92-337.92 337.92-337.92c40.96-40.96 40.96-102.4 0-143.36s-102.4-40.96-143.36 0l-409.6 409.6c-40.96 40.96-40.96 102.4 0 143.36l409.6 409.6z" />
<glyph unicode="&#xe902;" glyph-name="arrow_right" d="M378.88 30.72c-40.96-40.96-102.4-40.96-143.36 0s-40.96 102.4 0 143.36l337.92 337.92-337.92 337.92c-40.96 40.96-40.96 102.4 0 143.36s102.4 40.96 143.36 0l409.6-409.6c40.96-40.96 40.96-102.4 0-143.36l-409.6-409.6z" />
<glyph unicode="&#xe903;" glyph-name="arrow_up" d="M993.28 378.88c40.96-40.96 40.96-102.4 0-143.36s-102.4-40.96-143.36 0l-337.92 337.92-337.92-337.92c-40.96-40.96-102.4-40.96-143.36 0s-40.96 102.4 0 143.36l409.6 409.6c40.96 40.96 102.4 40.96 143.36 0l409.6-409.6z" />
<glyph unicode="&#xe904;" glyph-name="del" d="M30.72 849.92c-40.96 40.96-40.96 102.4 0 143.36s102.4 40.96 143.36 0l337.92-337.92 337.92 337.92c40.96 40.96 102.4 40.96 143.36 0s40.96-102.4 0-143.36l-337.92-337.92 337.92-337.92c40.96-40.96 40.96-102.4 0-143.36s-102.4-40.96-143.36 0l-337.92 337.92-337.92-337.92c-40.96-40.96-102.4-40.96-143.36 0s-40.96 102.4 0 143.36l337.92 337.92-337.92 337.92z" />
<glyph unicode="&#xe905;" glyph-name="arrowlefttop" d="M890.88 276.48c-15.36 20.48-40.96 30.72-71.68 30.72s-56.32-10.24-71.68-30.72c-20.48-15.36-30.72-40.96-30.72-71.68s10.24-56.32 30.72-71.68c20.48-20.48 46.080-30.72 71.68-30.72 30.72 0 56.32 10.24 71.68 30.72 20.48 20.48 30.72 46.080 30.72 71.68 0 30.72-10.24 56.32-30.72 71.68zM87.040 732.16c-20.48-20.48-51.2-20.48-71.68 0s-20.48 51.2 0 71.68l204.8 204.8c0 0 5.12 5.12 5.12 5.12s5.12 5.12 5.12 5.12 15.36 5.12 25.6 5.12c10.24 0 20.48 0 25.6-5.12 0 0 5.12 0 5.12-5.12 0 0 5.12-5.12 5.12-5.12l204.8-204.8c20.48-20.48 20.48-51.2 0-71.68s-51.2-20.48-71.68 0l-117.76 117.76v-491.52c0-25.6 10.24-51.2 30.72-71.68s46.080-30.72 71.68-30.72h209.92c10.24 35.84 25.6 66.56 51.2 92.16 35.84 35.84 87.040 61.44 143.36 61.44s107.52-20.48 143.36-61.44c35.84-35.84 61.44-87.040 61.44-143.36s-20.48-107.52-61.44-143.36c-30.72-40.96-81.92-61.44-138.24-61.44s-107.52 20.48-143.36 61.44c-25.6 25.6-46.080 56.32-51.2 92.16h-215.040c-56.32 0-107.52 20.48-143.36 61.44-40.96 35.84-61.44 87.040-61.44 143.36v491.52l-117.76-117.76z" />
<glyph unicode="&#xe906;" glyph-name="boxbox" d="M896 576h-448v-448h448v448zM576 704v192h-448v-448h192v192c0 38.4 25.6 64 64 64h192zM320 320h-256c-38.4 0-64 25.6-64 64v576c0 38.4 25.6 64 64 64h576c38.4 0 64-25.6 64-64v-256h256c38.4 0 64-25.6 64-64v-576c0-38.4-25.6-64-64-64h-576c-38.4 0-64 25.6-64 64v256z" />
<glyph unicode="&#xe907;" glyph-name="cart" d="M320 256c70.4 0 128-57.6 128-128s-57.6-128-128-128c-70.4 0-128 57.6-128 128s57.6 128 128 128zM768 256c70.4 0 128-57.6 128-128s-57.6-128-128-128c-70.4 0-128 57.6-128 128s57.6 128 128 128zM576 896c38.4 0 64-25.6 64-64s-25.6-64-64-64h-409.6l128-256h371.2l236.8 473.6c12.8 32 51.2 44.8 83.2 25.6 32-12.8 44.8-51.2 25.6-83.2l-256-505.6c0-19.2-25.6-38.4-51.2-38.4h-448c-25.6 0-44.8 12.8-57.6 38.4l-192 377.6c0 6.4-6.4 19.2-6.4 32 0 38.4 25.6 64 64 64h512z" />
<glyph unicode="&#xe908;" glyph-name="change" d="M403.2 748.8c25.6 25.6 64 25.6 89.6 0s25.6-64 0-89.6l-192-192c0 0 0 0-6.4 0v0 0 0c0 0 0 0 0 0v0c0 0 0 0 0 0v0c-12.8-19.2-25.6-19.2-38.4-19.2s-25.6 0-32 6.4v0c0 0 0 0 0 0v0c0 0 0 0 0 0v0 0 0c0 0 0 0-6.4 0v0 0 0 0l-192 192c-25.6 25.6-25.6 64 0 89.6s64 25.6 89.6 0l76.8-70.4v38.4c0 89.6 38.4 166.4 96 224s134.4 96 224 96c89.6 0 166.4-38.4 224-96s96-134.4 96-224c0-38.4-25.6-64-64-64s-64 25.6-64 64c0 51.2-19.2 102.4-57.6 134.4-32 38.4-83.2 57.6-134.4 57.6s-102.4-19.2-134.4-57.6c-38.4-32-57.6-83.2-57.6-134.4v-38.4l83.2 83.2zM723.2 556.8v0 0c0 6.4 6.4 6.4 0 0v0 0 0c6.4 6.4 6.4 6.4 6.4 6.4v0c0 0 0 0 0 0v0c12.8 12.8 25.6 12.8 38.4 12.8s25.6 0 32-6.4v0c0 0 0 0 0 0v0c0 0 0 0 0 0v0 0 0c0 0 0 0 6.4 0v0 0 0 0l192-192c25.6-25.6 25.6-64 0-89.6s-64-25.6-89.6 0l-76.8 70.4v-38.4c0-89.6-38.4-166.4-96-224s-134.4-96-224-96c-89.6 0-166.4 38.4-224 96s-96 134.4-96 224c0 38.4 25.6 64 64 64s64-25.6 64-64c0-51.2 19.2-102.4 57.6-134.4 32-38.4 83.2-57.6 134.4-57.6s102.4 19.2 134.4 57.6c32 32 57.6 83.2 57.6 134.4v38.4l-83.2-83.2c-25.6-25.6-64-25.6-89.6 0s-25.6 64 0 89.6l192 192z" />
<glyph unicode="&#xe909;" glyph-name="check" d="M832 896h-640c-19.2 0-32-6.4-44.8-19.2s-19.2-25.6-19.2-44.8v-640c0-19.2 6.4-32 19.2-44.8s25.6-19.2 44.8-19.2h640c19.2 0 32 6.4 44.8 19.2s19.2 25.6 19.2 44.8v640c0 19.2-6.4 32-19.2 44.8s-25.6 19.2-44.8 19.2zM211.2 467.2c-25.6 25.6-25.6 64 0 89.6s64 25.6 89.6 0l147.2-147.2 275.2 275.2c25.6 25.6 64 25.6 89.6 0s25.6-64 0-89.6l-320-320c-25.6-25.6-64-25.6-89.6 0l-192 192zM192 1024h640c51.2 0 102.4-19.2 134.4-57.6 38.4-32 57.6-83.2 57.6-134.4v-640c0-51.2-19.2-102.4-57.6-134.4-32-38.4-83.2-57.6-134.4-57.6h-640c-51.2 0-102.4 19.2-134.4 57.6-38.4 32-57.6 83.2-57.6 134.4v640c0 51.2 19.2 102.4 57.6 134.4 32 38.4 83.2 57.6 134.4 57.6z" />
<glyph unicode="&#xe90a;" glyph-name="crown" d="M320 320c-38.4 0-64 25.6-64 64s25.6 64 64 64h576v358.4l-115.2-115.2c-25.6-25.6-64-25.6-89.6 0l-179.2 179.2-179.2-179.2c-25.6-25.6-64-25.6-89.6 0l-115.2 115.2v-678.4h768v192h-576zM556.8 1004.8l179.2-179.2 179.2 179.2c25.6 25.6 64 25.6 89.6 0 12.8-12.8 19.2-25.6 19.2-44.8v-896c0-38.4-25.6-64-64-64h-896c-38.4 0-64 25.6-64 64v896c0 38.4 25.6 64 64 64 19.2 0 32-6.4 44.8-19.2l179.2-179.2 179.2 179.2c25.6 25.6 64 25.6 89.6 0z" />
<glyph unicode="&#xe90b;" glyph-name="facebook" d="M966.4 1024h-908.8c-32 0-57.6-25.6-57.6-57.6v-908.8c0-32 25.6-57.6 57.6-57.6h492.8v396.8h-134.4v153.6h134.4v115.2c0 134.4 83.2 204.8 198.4 204.8 57.6 0 102.4-6.4 121.6-6.4v-140.8h-83.2c-64 0-76.8-32-76.8-76.8v-96h153.6l-19.2-153.6h-140.8v-396.8h262.4c32 0 57.6 25.6 57.6 57.6v908.8c0 32-25.6 57.6-57.6 57.6z" />
<glyph unicode="&#xe90c;" glyph-name="heart" d="M640 806.4c-25.6-25.6-44.8-57.6-70.4-102.4v0c-6.4-12.8-19.2-25.6-32-32-25.6-12.8-64 0-83.2 25.6-25.6 51.2-44.8 83.2-70.4 108.8-25.6 19.2-57.6 25.6-96 25.6-44.8 0-83.2-19.2-115.2-44.8-25.6-32-44.8-70.4-44.8-115.2 0-153.6 147.2-294.4 313.6-454.4 25.6-19.2 44.8-44.8 70.4-64 25.6 25.6 44.8 44.8 70.4 64 166.4 160 313.6 294.4 313.6 454.4 0 44.8-19.2 83.2-44.8 108.8-32 32-70.4 51.2-115.2 51.2-38.4 0-70.4-6.4-96-25.6zM512 851.2c12.8 19.2 32 38.4 51.2 51.2 44.8 38.4 102.4 57.6 172.8 57.6 76.8 0 153.6-32 204.8-83.2s83.2-121.6 83.2-204.8c0-211.2-160-364.8-352-544-38.4-38.4-76.8-70.4-115.2-108.8-25.6-25.6-64-25.6-89.6 0-38.4 38.4-76.8 70.4-115.2 108.8-192 179.2-352 332.8-352 544 0 76.8 32 147.2 83.2 204.8 51.2 51.2 128 83.2 204.8 83.2 70.4 0 128-19.2 172.8-57.6 19.2-12.8 38.4-32 51.2-51.2z" />
<glyph unicode="&#xe90d;" glyph-name="heartfill" d="M512 851.2c12.8 19.2 32 38.4 51.2 51.2 44.8 38.4 102.4 57.6 172.8 57.6 76.8 0 153.6-32 204.8-83.2s83.2-121.6 83.2-204.8c0-211.2-160-364.8-352-544-38.4-38.4-76.8-70.4-115.2-108.8-25.6-25.6-64-25.6-89.6 0-38.4 38.4-76.8 70.4-115.2 108.8-192 179.2-352 332.8-352 544 0 76.8 32 147.2 83.2 204.8 51.2 51.2 128 83.2 204.8 83.2 70.4 0 128-19.2 172.8-57.6 19.2-12.8 38.4-32 51.2-51.2z" />
<glyph unicode="&#xe90e;" glyph-name="info" d="M780.8 780.8c-64 70.4-160 115.2-268.8 115.2s-204.8-44.8-268.8-115.2c-70.4-64-115.2-160-115.2-268.8s44.8-204.8 115.2-268.8c64-70.4 160-115.2 268.8-115.2s204.8 44.8 268.8 115.2c70.4 64 115.2 160 115.2 268.8s-44.8 204.8-115.2 268.8zM576 512c0-38.4-25.6-64-64-64s-64 25.6-64 64v192c0 38.4 25.6 64 64 64s64-25.6 64-64v-192zM512 1024c140.8 0 268.8-57.6 364.8-147.2 89.6-96 147.2-224 147.2-364.8s-57.6-268.8-147.2-364.8c-96-89.6-224-147.2-364.8-147.2s-268.8 57.6-364.8 147.2c-89.6 96-147.2 224-147.2 364.8s57.6 268.8 147.2 364.8c96 89.6 224 147.2 364.8 147.2zM512 384c38.4 0 64-25.6 64-64s-25.6-64-64-64c-38.4 0-64 25.6-64 64s25.6 64 64 64z" />
<glyph unicode="&#xe90f;" glyph-name="istagram" d="M601.6 601.6c-19.2 25.6-51.2 38.4-89.6 38.4s-70.4-12.8-89.6-38.4c-25.6-19.2-38.4-51.2-38.4-89.6s12.8-70.4 38.4-89.6c19.2-25.6 51.2-38.4 89.6-38.4s70.4 12.8 89.6 38.4c25.6 19.2 38.4 51.2 38.4 89.6s-12.8 70.4-38.4 89.6zM512 768c70.4 0 134.4-25.6 179.2-76.8 51.2-44.8 76.8-108.8 76.8-179.2s-25.6-134.4-76.8-179.2c-44.8-51.2-108.8-76.8-179.2-76.8s-134.4 25.6-179.2 76.8c-51.2 44.8-76.8 108.8-76.8 179.2s25.6 134.4 76.8 179.2c44.8 51.2 108.8 76.8 179.2 76.8zM768 832c0-38.4-25.6-64-64-64s-64 25.6-64 64v64h-512v-768h768v768h-128v-64zM64 1024h896c38.4 0 64-25.6 64-64v-896c0-38.4-25.6-64-64-64h-896c-38.4 0-64 25.6-64 64v896c0 38.4 25.6 64 64 64z" />
<glyph unicode="&#xe910;" glyph-name="like" d="M704 576c-38.4 0-64 25.6-64 64s25.6 64 64 64h256c38.4 0 64-25.6 64-64s-25.6-64-64-64h-256zM704 384c-38.4 0-64 25.6-64 64s25.6 64 64 64h256c38.4 0 64-25.6 64-64s-25.6-64-64-64h-256zM704 192c-38.4 0-64 25.6-64 64s25.6 64 64 64h256c38.4 0 64-25.6 64-64s-25.6-64-64-64h-256zM0 640c0 38.4 25.6 64 64 64h192c70.4 0 134.4 25.6 179.2 76.8 51.2 44.8 76.8 108.8 76.8 179.2 0 38.4 25.6 64 64 64s64-25.6 64-64c0-108.8-44.8-204.8-115.2-268.8-64-70.4-160-115.2-268.8-115.2h-128v-448h704c38.4 0 64-25.6 64-64s-25.6-64-64-64h-768c-38.4 0-64 25.6-64 64v576z" />
<glyph unicode="&#xe911;" glyph-name="location" d="M473.6 230.4c12.8-19.2 25.6-38.4 38.4-51.2 12.8 19.2 25.6 32 38.4 51.2 70.4 102.4 147.2 204.8 192 294.4 6.4 19.2 12.8 38.4 19.2 57.6s6.4 38.4 6.4 57.6c0 70.4-25.6 134.4-76.8 179.2-44.8 51.2-108.8 76.8-179.2 76.8s-134.4-25.6-179.2-76.8c-51.2-44.8-76.8-108.8-76.8-179.2 0-19.2 0-38.4 6.4-57.6s12.8-38.4 19.2-57.6c44.8-89.6 121.6-198.4 192-294.4zM512 704c38.4 0 64-25.6 64-64s-25.6-64-64-64c-38.4 0-64 25.6-64 64s25.6 64 64 64zM460.8 32c-25.6 38.4-57.6 83.2-89.6 128-76.8 96-153.6 211.2-204.8 307.2-12.8 25.6-19.2 57.6-25.6 83.2-6.4 32-12.8 57.6-12.8 89.6 0 108.8 44.8 204.8 115.2 268.8 64 70.4 160 115.2 268.8 115.2s204.8-44.8 268.8-115.2c70.4-64 115.2-160 115.2-268.8 0-32-6.4-57.6-12.8-89.6s-19.2-57.6-32-83.2c-51.2-102.4-128-211.2-204.8-313.6-32-44.8-64-89.6-89.6-128-19.2-32-57.6-38.4-89.6-19.2 0 6.4-6.4 12.8-6.4 25.6z" />
<glyph unicode="&#xe912;" glyph-name="mail" d="M896 544l-358.4-153.6c-19.2-6.4-32-6.4-51.2 0l-358.4 153.6v-352h768v352zM128 684.8l384-166.4 384 166.4v147.2h-768v-147.2zM64 960h896c38.4 0 64-25.6 64-64v-768c0-38.4-25.6-64-64-64h-896c-38.4 0-64 25.6-64 64v768c0 38.4 25.6 64 64 64z" />
<glyph unicode="&#xe913;" glyph-name="pluscircle" d="M780.8 780.8c-64 70.4-160 115.2-268.8 115.2s-204.8-44.8-268.8-115.2c-70.4-64-115.2-160-115.2-268.8s44.8-204.8 115.2-268.8c64-70.4 160-115.2 268.8-115.2s204.8 44.8 268.8 115.2c70.4 64 115.2 160 115.2 268.8s-44.8 204.8-115.2 268.8zM576 320c0-38.4-25.6-64-64-64s-64 25.6-64 64v128h-128c-38.4 0-64 25.6-64 64s25.6 64 64 64h128v128c0 38.4 25.6 64 64 64s64-25.6 64-64v-128h128c38.4 0 64-25.6 64-64s-25.6-64-64-64h-128v-128zM512 1024c140.8 0 268.8-57.6 364.8-147.2 89.6-96 147.2-224 147.2-364.8s-57.6-268.8-147.2-364.8c-96-89.6-224-147.2-364.8-147.2s-268.8 57.6-364.8 147.2c-89.6 96-147.2 224-147.2 364.8s57.6 268.8 147.2 364.8c96 89.6 224 147.2 364.8 147.2z" />
<glyph unicode="&#xe914;" glyph-name="radio" d="M780.8 780.8c-64 70.4-160 115.2-268.8 115.2s-204.8-44.8-268.8-115.2c-70.4-64-115.2-160-115.2-268.8s44.8-204.8 115.2-268.8c64-70.4 160-115.2 268.8-115.2s204.8 44.8 268.8 115.2c70.4 64 115.2 160 115.2 268.8s-44.8 204.8-115.2 268.8zM512 1024c140.8 0 268.8-57.6 364.8-147.2 89.6-96 147.2-224 147.2-364.8s-57.6-268.8-147.2-364.8c-96-89.6-224-147.2-364.8-147.2s-268.8 57.6-364.8 147.2c-89.6 96-147.2 224-147.2 364.8s57.6 268.8 147.2 364.8c96 89.6 224 147.2 364.8 147.2zM512 768c140.8 0 256-115.2 256-256s-115.2-256-256-256-256 115.2-256 256 115.2 256 256 256z" />
<glyph unicode="&#xe915;" glyph-name="rate" d="M192 64c0-38.4-25.6-64-64-64s-64 25.6-64 64v192c0 38.4 25.6 64 64 64s64-25.6 64-64v-192zM384 64c0-38.4-25.6-64-64-64s-64 25.6-64 64v512c0 38.4 25.6 64 64 64s64-25.6 64-64v-512zM576 64c0-38.4-25.6-64-64-64s-64 25.6-64 64v384c0 38.4 25.6 64 64 64s64-25.6 64-64v-384zM768 64c0-38.4-25.6-64-64-64s-64 25.6-64 64v896c0 38.4 25.6 64 64 64s64-25.6 64-64v-896zM960 64c0-38.4-25.6-64-64-64s-64 25.6-64 64v576c0 38.4 25.6 64 64 64s64-25.6 64-64v-576z" />
<glyph unicode="&#xe916;" glyph-name="search" d="M806.4 307.2l198.4-198.4c25.6-25.6 25.6-64 0-89.6s-64-25.6-89.6 0l-198.4 198.4c-32-19.2-64-38.4-96-57.6-57.6-19.2-115.2-32-172.8-32-121.6 0-236.8 51.2-313.6 134.4-83.2 76.8-134.4 192-134.4 313.6s51.2 236.8 134.4 313.6c76.8 83.2 192 134.4 313.6 134.4s236.8-51.2 313.6-134.4c83.2-76.8 134.4-192 134.4-313.6 0-57.6-12.8-115.2-32-172.8-19.2-32-32-64-57.6-96zM672 352v0c32 32 51.2 64 70.4 102.4s25.6 76.8 25.6 121.6c0 89.6-38.4 166.4-96 224s-134.4 96-224 96-166.4-38.4-224-96c-57.6-57.6-96-134.4-96-224s38.4-166.4 96-224c57.6-57.6 134.4-96 224-96 44.8 0 83.2 6.4 121.6 25.6 38.4 12.8 76.8 38.4 102.4 70.4z" />
<glyph unicode="&#xe917;" glyph-name="twitter" d="M371.2 198.4c288 0 448 243.2 448 448 0 6.4 0 12.8 0 19.2 32 19.2 57.6 51.2 76.8 83.2-25.6-12.8-57.6-19.2-89.6-25.6 32 19.2 57.6 51.2 70.4 89.6-32-19.2-64-32-102.4-38.4-25.6 32-70.4 51.2-115.2 51.2-89.6 0-160-70.4-160-160 0-12.8 0-25.6 6.4-38.4-128 12.8-249.6 70.4-326.4 166.4-12.8-19.2-19.2-51.2-19.2-76.8 0-57.6 25.6-102.4 70.4-128-25.6 0-51.2 6.4-70.4 19.2 0 0 0 0 0 0 0-76.8 51.2-140.8 128-153.6-12.8-12.8-32-12.8-44.8-12.8s-19.2 0-32 0c19.2-64 76.8-108.8 147.2-108.8-51.2-44.8-121.6-70.4-198.4-70.4-12.8 0-25.6 0-38.4 0 76.8-38.4 160-64 249.6-64zM64 1024h896c32 0 64-32 64-64v-896c0-32-32-64-64-64h-896c-32 0-64 32-64 64v896c0 32 32 64 64 64z" />
<glyph unicode="&#xe918;" glyph-name="uncheck" d="M832 896h-640c-19.2 0-32-6.4-44.8-19.2s-19.2-25.6-19.2-44.8v-640c0-19.2 6.4-32 19.2-44.8s25.6-19.2 44.8-19.2h640c19.2 0 32 6.4 44.8 19.2s19.2 25.6 19.2 44.8v640c0 19.2-6.4 32-19.2 44.8s-25.6 19.2-44.8 19.2zM192 1024h640c51.2 0 102.4-19.2 134.4-57.6 38.4-32 57.6-83.2 57.6-134.4v-640c0-51.2-19.2-102.4-57.6-134.4-32-38.4-83.2-57.6-134.4-57.6h-640c-51.2 0-102.4 19.2-134.4 57.6-38.4 32-57.6 83.2-57.6 134.4v640c0 51.2 19.2 102.4 57.6 134.4 32 38.4 83.2 57.6 134.4 57.6z" />
<glyph unicode="&#xe919;" glyph-name="unradio" d="M780.8 780.8c-64 70.4-160 115.2-268.8 115.2s-204.8-44.8-268.8-115.2c-70.4-64-115.2-160-115.2-268.8s44.8-204.8 115.2-268.8c64-70.4 160-115.2 268.8-115.2s204.8 44.8 268.8 115.2c70.4 64 115.2 160 115.2 268.8s-44.8 204.8-115.2 268.8zM512 1024c140.8 0 268.8-57.6 364.8-147.2 89.6-96 147.2-224 147.2-364.8s-57.6-268.8-147.2-364.8c-96-89.6-224-147.2-364.8-147.2s-268.8 57.6-364.8 147.2c-89.6 96-147.2 224-147.2 364.8s57.6 268.8 147.2 364.8c96 89.6 224 147.2 364.8 147.2z" />
<glyph unicode="&#xe91a;" glyph-name="vk" d="M505.6 294.4h44.8c0 0 12.8 0 19.2 6.4 6.4 12.8 6.4 25.6 6.4 25.6s0 64 25.6 70.4c25.6 6.4 64-57.6 102.4-83.2 32-19.2 51.2-12.8 51.2-12.8h102.4c0 0 51.2 6.4 25.6 44.8 0 6.4-12.8 32-76.8 89.6s-57.6 51.2 19.2 153.6c44.8 64 64 102.4 57.6 115.2s-38.4 12.8-38.4 12.8h-115.2c0 0-6.4 0-12.8 0-6.4-6.4-12.8-12.8-12.8-12.8s-19.2-51.2-44.8-89.6c-38.4-96-57.6-102.4-70.4-96-19.2 12.8-12.8 51.2-12.8 76.8 0 83.2 12.8 121.6-25.6 128-12.8 0-19.2 6.4-51.2 6.4-38.4 0-76.8 0-96-12.8-12.8 0-25.6-19.2-19.2-19.2s25.6-6.4 32-19.2c12.8-19.2 12.8-51.2 12.8-51.2s6.4-102.4-12.8-108.8c-19.2-6.4-38.4 6.4-83.2 89.6-25.6 38.4-44.8 83.2-44.8 83.2s0 6.4-6.4 12.8c-6.4 6.4-19.2 6.4-19.2 6.4h-108.8c0 0-19.2 0-25.6-6.4 0-6.4 0-19.2 0-19.2s89.6-204.8 185.6-300.8c89.6-96 192-89.6 192-89.6zM64 1024h896c32 0 64-32 64-64v-896c0-32-32-64-64-64h-896c-32 0-64 32-64 64v896c0 32 32 64 64 64z" />
<glyph unicode="&#xe91b;" glyph-name="wallet" d="M896 576h-256c-19.2 0-32-6.4-44.8-19.2s-19.2-25.6-19.2-44.8c0-19.2 6.4-32 19.2-44.8s25.6-19.2 44.8-19.2h256v128zM640 704h256v128h-768v-640h768v128h-256c-51.2 0-102.4 19.2-134.4 57.6-38.4 32-57.6 83.2-57.6 134.4s19.2 102.4 57.6 134.4c32 38.4 83.2 57.6 134.4 57.6zM64 960h896c38.4 0 64-25.6 64-64v-768c0-38.4-25.6-64-64-64h-896c-38.4 0-64 25.6-64 64v768c0 38.4 25.6 64 64 64z" />
<glyph unicode="&#xe91c;" glyph-name="youtube" d="M960 1024h-896c-32 0-64-32-64-64v-896c0-32 32-64 64-64h896c32 0 64 32 64 64v896c0 32-32 64-64 64zM544 377.6l-224-134.4v537.6l448-268.8-224-134.4z" />
<glyph unicode="&#xe91d;" glyph-name="cartbig" d="M809.6 201.6c-16 16-35.2 22.4-57.6 22.4s-41.6-9.6-57.6-22.4c-16-16-22.4-35.2-22.4-57.6s9.6-41.6 22.4-57.6c16-16 35.2-22.4 57.6-22.4s41.6 9.6 57.6 22.4c16 16 22.4 35.2 22.4 57.6s-9.6 41.6-22.4 57.6zM752 288c38.4 0 76.8-16 102.4-41.6s41.6-60.8 41.6-102.4c0-38.4-16-76.8-41.6-102.4s-60.8-41.6-102.4-41.6c-38.4 0-76.8 16-102.4 41.6s-41.6 60.8-41.6 102.4c0 38.4 16 76.8 41.6 102.4s64 41.6 102.4 41.6zM393.6 201.6c-16 16-35.2 22.4-57.6 22.4s-41.6-9.6-57.6-22.4c-12.8-16-22.4-35.2-22.4-57.6s9.6-41.6 22.4-57.6c16-16 35.2-22.4 57.6-22.4s41.6 9.6 57.6 22.4c16 16 22.4 35.2 22.4 57.6s-9.6 41.6-22.4 57.6zM336 288c38.4 0 76.8-16 102.4-41.6s41.6-60.8 41.6-102.4c0-38.4-16-76.8-41.6-102.4s-60.8-41.6-102.4-41.6c-38.4 0-76.8 16-102.4 41.6s-41.6 64-41.6 102.4c0 38.4 16 76.8 41.6 102.4s64 41.6 102.4 41.6zM480 832c19.2 0 32-12.8 32-32s-12.8-32-32-32h-393.6l156.8-288h441.6l278.4 528c9.6 16 28.8 19.2 44.8 12.8 16-9.6 19.2-28.8 12.8-44.8l-288-540.8c-3.2-12.8-16-19.2-28.8-19.2h-480c-12.8 0-22.4 6.4-28.8 16l-192 348.8c0 6.4-3.2 12.8-3.2 19.2 0 19.2 12.8 32 32 32h448z" />
<glyph unicode="&#xe91e;" glyph-name="left" d="M0 512v0c0 12.8 6.4 22.4 12.8 25.6l284.8 284.8c12.8 12.8 32 12.8 44.8 0s12.8-32 0-44.8l-233.6-233.6h883.2c19.2 0 32-12.8 32-32s-12.8-32-32-32h-883.2l233.6-233.6c12.8-12.8 12.8-32 0-44.8s-32-12.8-44.8 0l-288 288c-6.4 6.4-9.6 12.8-9.6 22.4z" />
<glyph unicode="&#xe91f;" glyph-name="right" d="M1024 512v0c0-12.8-6.4-22.4-12.8-25.6l-284.8-284.8c-12.8-12.8-32-12.8-44.8 0s-12.8 32 0 44.8l233.6 233.6h-883.2c-19.2 0-32 12.8-32 32s12.8 32 32 32h883.2l-233.6 233.6c-12.8 12.8-12.8 32 0 44.8s32 12.8 44.8 0l288-288c6.4-6.4 9.6-12.8 9.6-22.4z" />
<glyph unicode="&#xe920;" glyph-name="photo24" d="M853.333 938.667h-682.667c-21.333 0-42.667-8.533-59.733-25.6s-25.6-38.4-25.6-59.733v-682.667c0-21.333 8.533-42.667 25.6-59.733s38.4-25.6 59.733-25.6h682.667c21.333 0 42.667 8.533 59.733 25.6s25.6 38.4 25.6 59.733v682.667c0 21.333-8.533 42.667-25.6 59.733s-38.4 25.6-59.733 25.6zM691.2 332.8c-42.667-46.933-106.667-76.8-179.2-76.8s-136.533 29.867-179.2 76.8c-46.933 42.667-76.8 106.667-76.8 179.2s29.867 136.533 76.8 179.2c42.667 46.933 106.667 76.8 179.2 76.8s136.533-29.867 179.2-76.8c46.933-42.667 76.8-106.667 76.8-179.2s-29.867-136.533-76.8-179.2zM512 341.333c46.933 0 89.6 17.067 119.467 51.2 29.867 29.867 51.2 72.533 51.2 119.467s-17.067 89.6-51.2 119.467c-29.867 34.133-72.533 51.2-119.467 51.2s-89.6-17.067-119.467-51.2c-34.133-29.867-51.2-72.533-51.2-119.467s17.067-89.6 51.2-119.467c29.867-34.133 72.533-51.2 119.467-51.2zM170.667 1024h682.667c46.933 0 89.6-17.067 119.467-51.2 34.133-29.867 51.2-72.533 51.2-119.467v-682.667c0-46.933-17.067-89.6-51.2-119.467-29.867-34.133-72.533-51.2-119.467-51.2h-682.667c-46.933 0-89.6 17.067-119.467 51.2-34.133 29.867-51.2 72.533-51.2 119.467v682.667c0 46.933 17.067 89.6 51.2 119.467 29.867 34.133 72.533 51.2 119.467 51.2zM810.667 853.333c-25.6 0-42.667-17.067-42.667-42.667s17.067-42.667 42.667-42.667c25.6 0 42.667 17.067 42.667 42.667s-17.067 42.667-42.667 42.667z" />
<glyph unicode="&#xe921;" glyph-name="smile24" d="M814.933 814.933c-76.8 76.8-183.467 123.733-302.933 123.733s-226.133-46.933-302.933-123.733-123.733-183.467-123.733-302.933c0-119.467 46.933-226.133 123.733-302.933s183.467-123.733 302.933-123.733c119.467 0 226.133 46.933 302.933 123.733s123.733 183.467 123.733 302.933c0 119.467-46.933 226.133-123.733 302.933zM725.333 512c0 25.6 17.067 42.667 42.667 42.667s42.667-17.067 42.667-42.667c0-81.067-34.133-157.867-89.6-209.067-55.467-55.467-128-89.6-209.067-89.6s-157.867 34.133-209.067 89.6c-55.467 51.2-89.6 128-89.6 209.067 0 25.6 17.067 42.667 42.667 42.667s42.667-17.067 42.667-42.667c0-59.733 25.6-110.933 64-149.333s89.6-64 149.333-64c59.733 0 110.933 25.6 149.333 64s64 89.6 64 149.333zM512 1024c140.8 0 268.8-55.467 362.667-149.333s149.333-221.867 149.333-362.667c0-140.8-55.467-268.8-149.333-362.667s-221.867-149.333-362.667-149.333c-140.8 0-268.8 55.467-362.667 149.333s-149.333 221.867-149.333 362.667c0 140.8 55.467 268.8 149.333 362.667s221.867 149.333 362.667 149.333z" />
<glyph unicode="&#xe922;" glyph-name="star" d="M512 992l-140.8-345.6-371.2-19.2 288-236.8-89.6-358.4 313.6 198.4 313.6-198.4-89.6 358.4 288 236.8-371.2 25.6-140.8 339.2z" />
<glyph unicode="&#xe923;" glyph-name="time" d="M659.2 870.4c-44.8 12.8-96 25.6-147.2 25.6-108.8 0-204.8-44.8-268.8-115.2-70.4-64-115.2-160-115.2-268.8s44.8-204.8 115.2-268.8c64-70.4 160-115.2 268.8-115.2s204.8 44.8 268.8 115.2c70.4 64 115.2 160 115.2 268.8 0 19.2 0 44.8-6.4 64s-6.4 38.4-12.8 64c-12.8 25.6-19.2 57.6-38.4 76.8-12.8 25.6-32 51.2-51.2 70.4-38.4 32-83.2 64-128 83.2zM512 1024c70.4 0 134.4-12.8 198.4-38.4s121.6-64 166.4-108.8c25.6-25.6 51.2-57.6 70.4-89.6s38.4-70.4 51.2-102.4c6.4-25.6 12.8-51.2 19.2-83.2s6.4-64 6.4-89.6c0-140.8-57.6-268.8-147.2-364.8-96-89.6-224-147.2-364.8-147.2s-268.8 57.6-364.8 147.2c-89.6 96-147.2 224-147.2 364.8s57.6 268.8 147.2 364.8c96 89.6 224 147.2 364.8 147.2zM556.8 467.2c-25.6-25.6-64-25.6-89.6 0s-25.6 64 0 89.6l179.2 179.2c25.6 25.6 64 25.6 89.6 0s25.6-64 0-89.6l-179.2-179.2z" />
<glyph unicode="&#xe924;" glyph-name="share-fb" d="M430.933 128h140.8v349.867h119.467l17.067 136.533h-136.533v85.333c0 42.667 12.8 68.267 68.267 68.267h72.533v123.733c-12.8 0-55.467 4.267-106.667 4.267-102.4 0-174.933-64-174.933-179.2v-102.4h-119.467v-136.533h119.467v-349.867z" />
<glyph unicode="&#xe925;" glyph-name="share-gplus" d="M759.467 614.4c21.333 0 42.667 0 68.267 0 0-21.333 0-46.933 0-68.267 21.333 0 46.933 0 68.267 0 0-21.333 0-42.667 0-68.267-21.333 0-46.933 0-68.267 0 0-21.333 0-46.933 0-68.267-21.333 0-42.667 0-68.267 0 0 21.333 0 46.933 0 68.267-21.333 0-46.933 0-68.267 0 0 21.333 0 42.667 0 68.267 21.333 0 46.933 0 68.267 0 0 21.333 0 46.933 0 68.267zM128 524.8c4.267 132.267 123.733 247.467 256 243.2 64 4.267 123.733-25.6 170.667-64-21.333-25.6-42.667-46.933-64-68.267-59.733 38.4-140.8 51.2-200.533 4.267-85.333-55.467-85.333-192-8.533-256 76.8-72.533 226.133-34.133 247.467 72.533-46.933 0-98.133 0-145.067 0 0 29.867 0 59.733 0 85.333 81.067 0 162.133 0 243.2 0 4.267-68.267-4.267-140.8-46.933-196.267-64-89.6-192-115.2-290.133-76.8-98.133 42.667-170.667 149.333-162.133 256z" />
<glyph unicode="&#xe926;" glyph-name="share-ok" d="M512 499.2c110.933 0 196.267 89.6 196.267 196.267 0 110.933-85.333 200.533-196.267 200.533s-196.267-89.6-196.267-196.267c0-110.933 85.333-200.533 196.267-200.533zM512 780.8c46.933 0 81.067-38.4 81.067-81.067 0-46.933-38.4-81.067-81.067-81.067-46.933 0-81.067 38.4-81.067 81.067s34.133 81.067 81.067 81.067zM593.067 337.067c38.4 8.533 81.067 25.6 115.2 46.933 25.6 17.067 34.133 51.2 17.067 81.067-17.067 25.6-51.2 34.133-81.067 17.067-81.067-51.2-187.733-51.2-268.8 0-25.6 17.067-64 8.533-81.067-17.067s-8.533-64 17.067-81.067c34.133-21.333 76.8-38.4 115.2-46.933l-110.933-110.933c-21.333-21.333-21.333-59.733 0-81.067 12.8-12.8 25.6-17.067 42.667-17.067 12.8 0 29.867 4.267 42.667 17.067l110.933 110.933 110.933-110.933c21.333-21.333 59.733-21.333 81.067 0s21.333 59.733 0 81.067l-110.933 110.933z" />
<glyph unicode="&#xe927;" glyph-name="share-tw" d="M371.2 200.533c290.133 0 448 238.933 448 448 0 8.533 0 12.8 0 21.333 29.867 21.333 55.467 51.2 76.8 81.067-29.867-12.8-59.733-21.333-89.6-25.6 34.133 21.333 55.467 51.2 68.267 85.333-29.867-17.067-64-29.867-98.133-38.4-29.867 29.867-68.267 51.2-115.2 51.2-85.333 0-157.867-72.533-157.867-157.867 0-12.8 0-25.6 4.267-34.133-132.267 4.267-247.467 68.267-324.267 162.133-17.067-21.333-21.333-46.933-21.333-76.8 0-55.467 29.867-102.4 68.267-132.267-25.6 0-51.2 8.533-72.533 21.333 0 0 0 0 0 0 0-76.8 55.467-140.8 128-153.6-12.8-4.267-25.6-4.267-42.667-4.267-8.533 0-21.333 0-29.867 4.267 21.333-64 76.8-106.667 145.067-110.933-55.467-42.667-123.733-68.267-196.267-68.267-12.8 0-25.6 0-38.4 4.267 72.533-51.2 157.867-76.8 247.467-76.8z" />
<glyph unicode="&#xe928;" glyph-name="share-vk" d="M503.467 294.4h46.933c0 0 12.8 0 21.333 8.533s4.267 21.333 4.267 21.333 0 59.733 25.6 72.533c29.867 8.533 64-59.733 102.4-85.333 29.867-21.333 51.2-17.067 51.2-17.067h102.4c0 0 55.467 4.267 29.867 46.933 0 4.267-12.8 29.867-76.8 89.6s-55.467 51.2 21.333 153.6c51.2 59.733 68.267 98.133 64 115.2-8.533 17.067-42.667 12.8-42.667 12.8h-115.2c0 0-8.533 0-12.8-4.267s-8.533-12.8-8.533-12.8-17.067-46.933-42.667-89.6c-51.2-85.333-72.533-93.867-81.067-85.333-21.333 12.8-12.8 51.2-12.8 76.8 0 85.333 12.8 119.467-25.6 128-12.8 4.267-21.333 4.267-55.467 4.267-42.667 0-76.8 0-93.867-8.533-17.067-4.267-25.6-21.333-21.333-21.333 8.533 0 25.6-4.267 34.133-17.067 12.8-17.067 12.8-51.2 12.8-51.2s8.533-98.133-17.067-110.933c-17.067-8.533-38.4 8.533-81.067 89.6-25.6 42.667-42.667 85.333-42.667 85.333s-4.267 4.267-8.533 8.533c-8.533 4.267-17.067 8.533-17.067 8.533h-110.933c0 0-17.067 0-21.333-8.533-8.533-8.533-4.267-21.333-4.267-21.333s85.333-200.533 183.467-302.933c89.6-89.6 192-85.333 192-85.333z" />
</font>
</defs>
</svg>
