<svg 
 xmlns="http://www.w3.org/2000/svg"
 xmlns:xlink="http://www.w3.org/1999/xlink"
 width="60px" height="55px">
<path fill-rule="evenodd"  fill="#fff1d9"
 d="M15.057,54.995 L-0.003,42.737 L8.629,34.274 C13.339,29.637 20.365,28.224 26.514,30.677 L37.140,30.677 C39.342,30.677 41.128,32.454 41.128,34.645 C41.128,36.837 39.342,38.613 37.140,38.613 L28.911,38.613 C28.183,38.614 27.593,39.203 27.594,39.927 C27.595,40.651 28.184,41.238 28.911,41.239 L38.236,41.239 C39.578,41.238 40.857,40.667 41.748,39.668 L51.802,28.261 C53.338,26.578 55.956,26.453 57.647,27.982 C59.302,29.479 59.463,32.012 58.012,33.704 L45.459,48.246 C43.588,50.379 40.882,51.603 38.037,51.603 L18.442,51.603 L15.057,54.995 ZM35.983,21.854 C35.983,25.594 39.031,28.627 42.790,28.627 C46.549,28.627 49.597,25.594 49.597,21.853 C49.597,18.112 46.549,15.080 42.790,15.080 C42.782,15.080 42.774,15.080 42.766,15.080 C39.016,15.093 35.983,18.122 35.983,21.854 ZM28.044,19.708 C31.038,19.708 33.465,17.292 33.465,14.313 C33.465,11.333 31.038,8.918 28.044,8.918 C25.050,8.918 22.623,11.333 22.623,14.313 C22.623,17.292 25.050,19.708 28.044,19.708 ZM38.887,9.913 C41.638,9.913 43.868,7.694 43.868,4.956 C43.868,2.218 41.638,-0.001 38.887,-0.001 C36.135,-0.001 33.905,2.218 33.905,4.956 C33.902,7.694 36.129,9.916 38.881,9.919 C38.891,9.919 38.901,9.919 38.911,9.919 L38.887,9.913 Z"/>
</svg>