<svg 
 xmlns="http://www.w3.org/2000/svg"
 xmlns:xlink="http://www.w3.org/1999/xlink"
 width="40px" height="63px">
<path fill-rule="evenodd"  fill="#fff1d9"
 d="M14.142,12.422 C12.820,12.422 11.763,11.377 11.763,10.070 C11.763,8.763 12.820,7.718 14.142,7.718 C15.463,7.718 16.521,8.763 16.521,10.070 C16.521,11.377 15.463,12.422 14.142,12.422 ZM14.142,13.990 C18.899,13.990 22.798,17.845 22.798,22.549 C22.798,25.163 21.609,27.515 19.759,29.083 C18.899,28.691 17.974,28.430 16.917,28.430 C16.719,28.430 16.454,28.430 16.256,28.430 C15.727,28.495 14.009,28.756 12.754,30.586 C12.688,30.717 12.622,30.847 12.555,30.912 C8.524,30.194 5.485,26.731 5.485,22.549 C5.485,17.780 9.317,13.990 14.142,13.990 ZM11.168,24.379 C11.234,25.098 11.432,25.686 11.895,26.078 C12.357,26.535 12.952,26.796 13.679,26.862 L13.679,27.842 C13.679,27.972 13.811,28.103 13.943,28.103 L14.802,28.103 C14.934,28.103 15.067,27.972 15.067,27.842 L15.067,26.862 C15.661,26.731 16.124,26.535 16.454,26.208 C16.851,25.816 17.115,25.228 17.115,24.575 C17.115,23.856 16.917,23.333 16.454,22.941 C16.058,22.549 15.331,22.157 14.472,21.765 C14.075,21.569 13.811,21.439 13.679,21.242 C13.547,21.047 13.481,20.851 13.481,20.589 C13.481,20.328 13.547,20.132 13.679,19.936 C13.811,19.740 14.009,19.675 14.274,19.675 C14.538,19.675 14.736,19.805 14.934,20.001 C15.067,20.197 15.133,20.393 15.199,20.720 C15.199,20.851 15.331,20.981 15.463,20.981 L16.851,20.981 C16.983,20.981 17.115,20.851 17.115,20.720 C17.049,20.132 16.851,19.609 16.521,19.217 C16.124,18.760 15.661,18.498 15.067,18.368 L15.067,17.322 C15.067,17.192 14.934,17.061 14.802,17.061 L13.943,17.061 C13.811,17.061 13.679,17.192 13.679,17.322 L13.679,18.368 C13.018,18.433 12.489,18.694 12.093,19.086 C11.630,19.478 11.432,20.066 11.432,20.720 C11.432,21.439 11.630,21.961 12.093,22.353 C12.489,22.745 13.216,23.072 14.142,23.464 C14.538,23.595 14.802,23.791 14.934,23.987 C15.067,24.183 15.133,24.379 15.133,24.705 C15.133,24.967 15.067,25.163 14.934,25.359 C14.802,25.489 14.604,25.620 14.274,25.620 C13.943,25.620 13.679,25.489 13.481,25.294 C13.282,25.098 13.216,24.836 13.150,24.510 C13.150,24.379 13.018,24.248 12.886,24.248 L11.498,24.248 C11.300,24.118 11.168,24.248 11.168,24.379 ZM38.394,35.094 C37.667,34.571 30.200,26.339 28.217,25.228 L28.217,3.928 C28.217,1.772 26.433,0.008 24.252,0.008 L3.965,0.008 C1.784,0.008 -0.000,1.772 -0.000,3.928 L-0.000,41.170 C-0.000,43.327 1.784,45.091 3.965,45.091 L10.507,45.091 L12.820,45.091 L12.489,41.954 C12.489,41.889 12.423,41.758 12.423,41.693 L10.903,41.693 L8.326,41.693 C8.458,41.170 8.524,40.648 8.392,40.060 C8.128,38.426 6.806,37.119 5.154,36.858 C4.560,36.728 3.965,36.793 3.436,36.924 L3.436,7.914 C3.634,7.979 3.899,7.979 4.163,7.979 C6.344,7.979 8.128,6.215 8.128,4.059 C8.128,3.798 8.128,3.602 8.062,3.340 L20.155,3.340 C20.089,3.536 20.089,3.798 20.089,4.059 C20.089,6.215 21.873,7.979 24.054,7.979 C24.318,7.979 24.583,7.979 24.781,7.914 L24.781,36.205 L24.781,36.205 L24.781,44.306 C23.393,43.327 21.873,40.190 21.873,40.190 C21.873,40.190 21.146,31.827 16.851,31.827 C16.719,31.827 16.653,31.827 16.521,31.827 C16.521,31.827 13.282,32.089 15.992,41.236 L17.181,51.428 C17.181,51.428 18.503,56.917 22.204,60.772 L22.204,61.882 C22.204,62.470 22.732,62.993 23.327,62.993 L35.354,62.993 C35.949,62.993 36.411,62.601 36.477,62.013 C36.940,57.831 38.724,41.693 39.716,40.844 C39.716,40.844 40.905,36.989 38.394,35.094 Z"/>
</svg>