<svg 
 xmlns="http://www.w3.org/2000/svg"
 xmlns:xlink="http://www.w3.org/1999/xlink"
 width="51px" height="54px">
<path fill-rule="evenodd"  fill="#fff1d9"
 d="M44.093,54.000 L6.906,54.000 C3.102,54.000 0.000,51.284 0.000,47.954 L0.000,39.654 C0.000,38.476 0.960,37.519 2.142,37.519 C3.325,37.519 4.284,38.476 4.284,39.654 L4.284,47.954 C4.284,48.791 5.364,49.730 6.906,49.730 L44.093,49.730 C45.636,49.730 46.715,48.791 46.715,47.954 L46.715,40.252 C46.715,39.074 47.675,38.117 48.857,38.117 C50.040,38.117 51.000,39.074 51.000,40.252 L51.000,47.954 C51.000,51.284 47.898,54.000 44.093,54.000 ZM44.265,34.411 L33.845,34.411 C33.468,37.246 31.035,39.432 28.105,39.432 L22.689,39.432 C19.759,39.432 17.325,37.229 16.948,34.411 L6.529,34.411 C2.930,34.411 0.000,31.508 0.000,27.905 L0.000,17.675 C0.000,14.089 2.930,11.169 6.529,11.169 L12.407,11.169 C13.332,4.867 18.799,-0.000 25.397,-0.000 C31.978,-0.000 37.444,4.849 38.387,11.169 L44.265,11.169 C47.863,11.169 50.794,14.089 50.794,17.675 L50.794,27.905 C50.794,31.491 47.863,34.411 44.265,34.411 ZM21.181,33.660 C21.181,34.480 21.850,35.163 22.689,35.163 L28.105,35.163 C28.927,35.163 29.613,34.497 29.613,33.660 L29.613,31.320 C29.613,30.501 28.944,29.818 28.105,29.818 L22.689,29.818 C21.867,29.818 21.181,30.483 21.181,31.320 L21.181,33.660 ZM25.397,4.286 C21.181,4.286 17.634,7.241 16.760,11.186 L34.034,11.186 C33.160,7.241 29.613,4.286 25.397,4.286 ZM46.527,17.692 C46.527,16.462 45.516,15.455 44.282,15.455 L37.290,15.455 L35.405,15.455 L6.529,15.455 C5.295,15.455 4.284,16.462 4.284,17.692 L4.301,17.692 L4.301,27.922 C4.301,29.151 5.312,30.159 6.546,30.159 L17.034,30.159 C17.565,27.529 19.913,25.548 22.706,25.548 L28.122,25.548 C30.915,25.548 33.246,27.529 33.794,30.159 L44.282,30.159 C45.516,30.159 46.527,29.151 46.527,27.922 L46.527,17.692 Z"/>
</svg>