<svg xmlns="http://www.w3.org/2000/svg" xmlns:xlink="http://www.w3.org/1999/xlink" version="1.1" viewBox="0 0 172 172"><g fill="none" fill-rule="nonzero" stroke="none" stroke-width="1" stroke-linecap="butt" stroke-linejoin="miter" stroke-miterlimit="10" stroke-dasharray="" stroke-dashoffset="0" font-family="none" font-weight="none" font-size="none" text-anchor="none" style="mix-blend-mode: normal"><path d="M0,172v-172h172v172z" fill="none"/><g fill="#f1c40f"><path d="M24.4541,156.95l97.0424,-141.9h26.0494l-97.0467,141.9z"/><path d="M143.4738,17.2l-94.1098,137.6h-20.8378l94.1055,-137.6h20.8421M151.6223,12.9h-31.2567l-99.9879,146.2h31.2567l99.9879,-146.2z"/><path d="M129,156.95c-15.4112,0 -27.95,-12.5388 -27.95,-27.95v-4.3c0,-15.4112 12.5388,-27.95 27.95,-27.95c15.4112,0 27.95,12.5388 27.95,27.95v4.3c0,15.4112 -12.5388,27.95 -27.95,27.95zM129,113.95c-5.8265,0 -10.75,4.9235 -10.75,10.75v4.3c0,5.8265 4.9235,10.75 10.75,10.75c5.8265,0 10.75,-4.9235 10.75,-10.75v-4.3c0,-5.8265 -4.9235,-10.75 -10.75,-10.75z"/><path d="M129,98.9c14.2244,0 25.8,11.5756 25.8,25.8v4.3c0,14.2244 -11.5756,25.8 -25.8,25.8c-14.2244,0 -25.8,-11.5756 -25.8,-25.8v-4.3c0,-14.2244 11.5756,-25.8 25.8,-25.8M129,141.9c6.9918,0 12.9,-5.9082 12.9,-12.9v-4.3c0,-6.9918 -5.9082,-12.9 -12.9,-12.9c-6.9918,0 -12.9,5.9082 -12.9,12.9v4.3c0,6.9918 5.9082,12.9 12.9,12.9M129,94.6c-16.555,0 -30.1,13.545 -30.1,30.1v4.3c0,16.555 13.545,30.1 30.1,30.1c16.555,0 30.1,-13.545 30.1,-30.1v-4.3c0,-16.555 -13.545,-30.1 -30.1,-30.1zM129,137.6c-4.644,0 -8.6,-3.956 -8.6,-8.6v-4.3c0,-4.644 3.956,-8.6 8.6,-8.6c4.644,0 8.6,3.956 8.6,8.6v4.3c0,4.644 -3.956,8.6 -8.6,8.6z"/><g><path d="M43,75.25c-15.4112,0 -27.95,-12.5388 -27.95,-27.95v-4.3c0,-15.4112 12.5388,-27.95 27.95,-27.95c15.4112,0 27.95,12.5388 27.95,27.95v4.3c0,15.4112 -12.5388,27.95 -27.95,27.95zM43,32.25c-5.8265,0 -10.75,4.9235 -10.75,10.75v4.3c0,5.8265 4.9235,10.75 10.75,10.75c5.8265,0 10.75,-4.9235 10.75,-10.75v-4.3c0,-5.8265 -4.9235,-10.75 -10.75,-10.75z"/><path d="M43,17.2c14.2244,0 25.8,11.5756 25.8,25.8v4.3c0,14.2244 -11.5756,25.8 -25.8,25.8c-14.2244,0 -25.8,-11.5756 -25.8,-25.8v-4.3c0,-14.2244 11.5756,-25.8 25.8,-25.8M43,60.2c6.9918,0 12.9,-5.9082 12.9,-12.9v-4.3c0,-6.9918 -5.9082,-12.9 -12.9,-12.9c-6.9918,0 -12.9,5.9082 -12.9,12.9v4.3c0,6.9918 5.9082,12.9 12.9,12.9M43,12.9c-16.555,0 -30.1,13.545 -30.1,30.1v4.3c0,16.555 13.545,30.1 30.1,30.1c16.555,0 30.1,-13.545 30.1,-30.1v-4.3c0,-16.555 -13.545,-30.1 -30.1,-30.1zM43,55.9c-4.644,0 -8.6,-3.956 -8.6,-8.6v-4.3c0,-4.644 3.956,-8.6 8.6,-8.6c4.644,0 8.6,3.956 8.6,8.6v4.3c0,4.644 -3.956,8.6 -8.6,8.6z"/></g></g></g></svg>